<svg width="32" height="32" viewBox="0 0 32 32" fill="none" xmlns="http://www.w3.org/2000/svg">
<mask id="mask0_130_574" style="mask-type:alpha" maskUnits="userSpaceOnUse" x="0" y="0" width="32" height="32">
<rect width="32" height="32" fill="#D9D9D9"/>
</mask>
<g mask="url(#mask0_130_574)">
<path d="M24 14.6667H21.3333C20.9556 14.6667 20.6389 14.5389 20.3833 14.2834C20.1278 14.0278 20 13.7112 20 13.3334C20 12.9556 20.1278 12.6389 20.3833 12.3834C20.6389 12.1278 20.9556 12 21.3333 12H24V9.33337C24 8.9556 24.1278 8.63893 24.3833 8.38337C24.6389 8.12782 24.9556 8.00004 25.3333 8.00004C25.7111 8.00004 26.0278 8.12782 26.2833 8.38337C26.5389 8.63893 26.6667 8.9556 26.6667 9.33337V12H29.3333C29.7111 12 30.0278 12.1278 30.2833 12.3834C30.5389 12.6389 30.6667 12.9556 30.6667 13.3334C30.6667 13.7112 30.5389 14.0278 30.2833 14.2834C30.0278 14.5389 29.7111 14.6667 29.3333 14.6667H26.6667V17.3334C26.6667 17.7112 26.5389 18.0278 26.2833 18.2834C26.0278 18.5389 25.7111 18.6667 25.3333 18.6667C24.9556 18.6667 24.6389 18.5389 24.3833 18.2834C24.1278 18.0278 24 17.7112 24 17.3334V14.6667ZM12 16C10.5333 16 9.27779 15.4778 8.23334 14.4334C7.1889 13.3889 6.66668 12.1334 6.66668 10.6667C6.66668 9.20004 7.1889 7.94449 8.23334 6.90004C9.27779 5.8556 10.5333 5.33337 12 5.33337C13.4667 5.33337 14.7222 5.8556 15.7667 6.90004C16.8111 7.94449 17.3333 9.20004 17.3333 10.6667C17.3333 12.1334 16.8111 13.3889 15.7667 14.4334C14.7222 15.4778 13.4667 16 12 16ZM1.33334 24V22.9334C1.33334 22.1778 1.52779 21.4834 1.91668 20.85C2.30557 20.2167 2.82223 19.7334 3.46668 19.4C4.84445 18.7112 6.24445 18.1945 7.66668 17.85C9.0889 17.5056 10.5333 17.3334 12 17.3334C13.4667 17.3334 14.9111 17.5056 16.3333 17.85C17.7556 18.1945 19.1556 18.7112 20.5333 19.4C21.1778 19.7334 21.6945 20.2167 22.0833 20.85C22.4722 21.4834 22.6667 22.1778 22.6667 22.9334V24C22.6667 24.7334 22.4056 25.3612 21.8833 25.8834C21.3611 26.4056 20.7333 26.6667 20 26.6667H4.00001C3.26668 26.6667 2.6389 26.4056 2.11668 25.8834C1.59445 25.3612 1.33334 24.7334 1.33334 24ZM4.00001 24H20V22.9334C20 22.6889 19.9389 22.4667 19.8167 22.2667C19.6945 22.0667 19.5333 21.9112 19.3333 21.8C18.1333 21.2 16.9222 20.75 15.7 20.45C14.4778 20.15 13.2445 20 12 20C10.7556 20 9.52223 20.15 8.30001 20.45C7.07779 20.75 5.86668 21.2 4.66668 21.8C4.46668 21.9112 4.30557 22.0667 4.18334 22.2667C4.06112 22.4667 4.00001 22.6889 4.00001 22.9334V24ZM12 13.3334C12.7333 13.3334 13.3611 13.0723 13.8833 12.55C14.4056 12.0278 14.6667 11.4 14.6667 10.6667C14.6667 9.93337 14.4056 9.3056 13.8833 8.78337C13.3611 8.26115 12.7333 8.00004 12 8.00004C11.2667 8.00004 10.6389 8.26115 10.1167 8.78337C9.59445 9.3056 9.33334 9.93337 9.33334 10.6667C9.33334 11.4 9.59445 12.0278 10.1167 12.55C10.6389 13.0723 11.2667 13.3334 12 13.3334Z" fill="#171717"/>
</g>
</svg>
