<svg width="32" height="32" viewBox="0 0 32 32" fill="none" xmlns="http://www.w3.org/2000/svg">
<mask id="mask0_130_619" style="mask-type:alpha" maskUnits="userSpaceOnUse" x="0" y="0" width="32" height="32">
<rect width="32" height="32" fill="#D9D9D9"/>
</mask>
<g mask="url(#mask0_130_619)">
<path d="M6.66667 28C5.93333 28 5.30556 27.7389 4.78333 27.2167C4.26111 26.6944 4 26.0667 4 25.3333V6.66667C4 5.93333 4.26111 5.30556 4.78333 4.78333C5.30556 4.26111 5.93333 4 6.66667 4H17.3333C17.7111 4 18.0278 4.12778 18.2833 4.38333C18.5389 4.63889 18.6667 4.95556 18.6667 5.33333C18.6667 5.71111 18.5389 6.02778 18.2833 6.28333C18.0278 6.53889 17.7111 6.66667 17.3333 6.66667H6.66667V25.3333H25.3333V14.6667C25.3333 14.2889 25.4611 13.9722 25.7167 13.7167C25.9722 13.4611 26.2889 13.3333 26.6667 13.3333C27.0444 13.3333 27.3611 13.4611 27.6167 13.7167C27.8722 13.9722 28 14.2889 28 14.6667V25.3333C28 26.0667 27.7389 26.6944 27.2167 27.2167C26.6944 27.7389 26.0667 28 25.3333 28H6.66667ZM12 22.6667C11.6222 22.6667 11.3056 22.5389 11.05 22.2833C10.7944 22.0278 10.6667 21.7111 10.6667 21.3333C10.6667 20.9556 10.7944 20.6389 11.05 20.3833C11.3056 20.1278 11.6222 20 12 20H20C20.3778 20 20.6944 20.1278 20.95 20.3833C21.2056 20.6389 21.3333 20.9556 21.3333 21.3333C21.3333 21.7111 21.2056 22.0278 20.95 22.2833C20.6944 22.5389 20.3778 22.6667 20 22.6667H12ZM12 18.6667C11.6222 18.6667 11.3056 18.5389 11.05 18.2833C10.7944 18.0278 10.6667 17.7111 10.6667 17.3333C10.6667 16.9556 10.7944 16.6389 11.05 16.3833C11.3056 16.1278 11.6222 16 12 16H20C20.3778 16 20.6944 16.1278 20.95 16.3833C21.2056 16.6389 21.3333 16.9556 21.3333 17.3333C21.3333 17.7111 21.2056 18.0278 20.95 18.2833C20.6944 18.5389 20.3778 18.6667 20 18.6667H12ZM12 14.6667C11.6222 14.6667 11.3056 14.5389 11.05 14.2833C10.7944 14.0278 10.6667 13.7111 10.6667 13.3333C10.6667 12.9556 10.7944 12.6389 11.05 12.3833C11.3056 12.1278 11.6222 12 12 12H20C20.3778 12 20.6944 12.1278 20.95 12.3833C21.2056 12.6389 21.3333 12.9556 21.3333 13.3333C21.3333 13.7111 21.2056 14.0278 20.95 14.2833C20.6944 14.5389 20.3778 14.6667 20 14.6667H12ZM24 12C23.6222 12 23.3056 11.8722 23.05 11.6167C22.7944 11.3611 22.6667 11.0444 22.6667 10.6667V9.33333H21.3333C20.9556 9.33333 20.6389 9.20556 20.3833 8.95C20.1278 8.69444 20 8.37778 20 8C20 7.62222 20.1278 7.30556 20.3833 7.05C20.6389 6.79444 20.9556 6.66667 21.3333 6.66667H22.6667V5.33333C22.6667 4.95556 22.7944 4.63889 23.05 4.38333C23.3056 4.12778 23.6222 4 24 4C24.3778 4 24.6944 4.12778 24.95 4.38333C25.2056 4.63889 25.3333 4.95556 25.3333 5.33333V6.66667H26.6667C27.0444 6.66667 27.3611 6.79444 27.6167 7.05C27.8722 7.30556 28 7.62222 28 8C28 8.37778 27.8722 8.69444 27.6167 8.95C27.3611 9.20556 27.0444 9.33333 26.6667 9.33333H25.3333V10.6667C25.3333 11.0444 25.2056 11.3611 24.95 11.6167C24.6944 11.8722 24.3778 12 24 12Z" fill="#171717"/>
</g>
</svg>
