<svg width="24" height="24" viewBox="0 0 24 24" fill="none" xmlns="http://www.w3.org/2000/svg">
<mask id="mask0_743_49" style="mask-type:alpha" maskUnits="userSpaceOnUse" x="0" y="0" width="24" height="24">
<rect width="24" height="24" fill="#D9D9D9"/>
</mask>
<g mask="url(#mask0_743_49)">
<path d="M12.0001 15.2609C11.8291 15.2609 11.6617 15.2283 11.4979 15.1631C11.3342 15.0978 11.1882 15.0011 11.0599 14.8728L6.47402 10.287C6.22474 10.0377 6.1001 9.72899 6.1001 9.36088C6.1001 8.99276 6.22474 8.68406 6.47402 8.43478C6.72331 8.18549 7.03201 8.06085 7.40012 8.06085C7.76824 8.06085 8.07694 8.18549 8.32622 8.43478L12.0001 12.1087L15.674 8.43478C15.9233 8.18549 16.232 8.06085 16.6001 8.06085C16.9682 8.06085 17.2769 8.18549 17.5262 8.43478C17.7755 8.68406 17.9001 8.99276 17.9001 9.36088C17.9001 9.72899 17.7755 10.0377 17.5262 10.287L12.9403 14.8728C12.8121 15.0011 12.6661 15.0978 12.5023 15.1631C12.3385 15.2283 12.1711 15.2609 12.0001 15.2609Z" fill="#171717"/>
</g>
</svg>
