<svg width="527" height="59" viewBox="0 0 527 59" fill="none" xmlns="http://www.w3.org/2000/svg">
<path d="M8.22969 57.5C5.72302 57.5 3.80302 56.86 2.46969 55.58C1.18969 54.2467 0.549688 52.3533 0.549688 49.9V8.7C0.549688 6.24667 1.18969 4.38 2.46969 3.1C3.80302 1.76666 5.72302 1.1 8.22969 1.1H27.7497C31.803 1.1 35.243 1.71333 38.0697 2.94C40.9497 4.11333 43.1364 5.79333 44.6297 7.98C46.123 10.1667 46.8697 12.7267 46.8697 15.66C46.8697 18.9667 45.9097 21.7933 43.9897 24.14C42.123 26.4867 39.563 28.0867 36.3097 28.94V27.66C40.1497 28.3533 43.1097 29.9 45.1897 32.3C47.323 34.7 48.3897 37.7667 48.3897 41.5C48.3897 46.46 46.603 50.38 43.0297 53.26C39.5097 56.0867 34.683 57.5 28.5497 57.5H8.22969ZM14.6297 46.7H26.5497C29.2697 46.7 31.243 46.1933 32.4697 45.18C33.7497 44.1133 34.3897 42.54 34.3897 40.46C34.3897 38.38 33.7497 36.8333 32.4697 35.82C31.243 34.8067 29.2697 34.3 26.5497 34.3H14.6297V46.7ZM14.6297 23.5H25.1097C27.7764 23.5 29.723 23.02 30.9497 22.06C32.2297 21.1 32.8697 19.6333 32.8697 17.66C32.8697 15.6867 32.2297 14.2467 30.9497 13.34C29.723 12.38 27.7764 11.9 25.1097 11.9H14.6297V23.5ZM64.0816 58.22C61.7349 58.22 59.9216 57.58 58.6416 56.3C57.3616 54.9667 56.7216 53.1 56.7216 50.7V7.9C56.7216 5.44667 57.3616 3.58 58.6416 2.3C59.9216 1.02 61.7349 0.379996 64.0816 0.379996C66.4816 0.379996 68.2949 1.02 69.5216 2.3C70.8016 3.58 71.4416 5.44667 71.4416 7.9V50.7C71.4416 53.1 70.8282 54.9667 69.6016 56.3C68.3749 57.58 66.5349 58.22 64.0816 58.22ZM89.3234 57.5C86.8168 57.5 84.8968 56.86 83.5634 55.58C82.2834 54.2467 81.6434 52.3533 81.6434 49.9V8.7C81.6434 6.24667 82.2834 4.38 83.5634 3.1C84.8968 1.76666 86.8168 1.1 89.3234 1.1H116.443C118.363 1.1 119.803 1.58 120.763 2.54C121.723 3.5 122.203 4.88666 122.203 6.7C122.203 8.56666 121.723 10.0067 120.763 11.02C119.803 11.98 118.363 12.46 116.443 12.46H95.7234V23.18H114.683C116.55 23.18 117.963 23.66 118.923 24.62C119.937 25.58 120.443 26.9933 120.443 28.86C120.443 30.7267 119.937 32.14 118.923 33.1C117.963 34.06 116.55 34.54 114.683 34.54H95.7234V46.14H116.443C118.363 46.14 119.803 46.6467 120.763 47.66C121.723 48.62 122.203 50.0067 122.203 51.82C122.203 53.6867 121.723 55.1 120.763 56.06C119.803 57.02 118.363 57.5 116.443 57.5H89.3234ZM137.664 58.22C135.424 58.22 133.717 57.6333 132.544 56.46C131.371 55.2867 130.784 53.5533 130.784 51.26V7.66C130.784 5.31333 131.371 3.52666 132.544 2.3C133.717 1.02 135.264 0.379996 137.184 0.379996C138.891 0.379996 140.224 0.699997 141.184 1.34C142.144 1.98 143.211 3.04666 144.384 4.54L169.744 36.22H167.504V7.26C167.504 5.02 168.064 3.31333 169.184 2.14C170.357 0.966663 172.064 0.379996 174.304 0.379996C176.544 0.379996 178.224 0.966663 179.344 2.14C180.517 3.31333 181.104 5.02 181.104 7.26V51.58C181.104 53.6067 180.571 55.2333 179.504 56.46C178.437 57.6333 176.997 58.22 175.184 58.22C173.371 58.22 171.931 57.9 170.864 57.26C169.851 56.5667 168.757 55.5 167.584 54.06L142.224 22.3H144.464V51.26C144.464 53.5533 143.877 55.2867 142.704 56.46C141.584 57.6333 139.904 58.22 137.664 58.22ZM216.049 58.22C214.022 58.22 212.369 57.7933 211.089 56.94C209.862 56.0867 208.822 54.7267 207.969 52.86L188.609 10.14C187.756 8.27333 187.489 6.59333 187.809 5.1C188.129 3.60666 188.876 2.46 190.049 1.66C191.222 0.806664 192.689 0.379996 194.449 0.379996C196.636 0.379996 198.262 0.859996 199.329 1.82C200.449 2.78 201.409 4.19333 202.209 6.06L218.529 43.82H214.049L230.369 5.98C231.169 4.11333 232.129 2.72666 233.249 1.82C234.369 0.859996 235.942 0.379996 237.969 0.379996C239.622 0.379996 241.009 0.806664 242.129 1.66C243.249 2.46 243.942 3.60666 244.209 5.1C244.529 6.59333 244.262 8.27333 243.409 10.14L223.969 52.86C223.169 54.7267 222.156 56.0867 220.929 56.94C219.702 57.7933 218.076 58.22 216.049 58.22ZM258.464 57.5C255.957 57.5 254.037 56.86 252.704 55.58C251.424 54.2467 250.784 52.3533 250.784 49.9V8.7C250.784 6.24667 251.424 4.38 252.704 3.1C254.037 1.76666 255.957 1.1 258.464 1.1H285.584C287.504 1.1 288.944 1.58 289.904 2.54C290.864 3.5 291.344 4.88666 291.344 6.7C291.344 8.56666 290.864 10.0067 289.904 11.02C288.944 11.98 287.504 12.46 285.584 12.46H264.864V23.18H283.824C285.691 23.18 287.104 23.66 288.064 24.62C289.077 25.58 289.584 26.9933 289.584 28.86C289.584 30.7267 289.077 32.14 288.064 33.1C287.104 34.06 285.691 34.54 283.824 34.54H264.864V46.14H285.584C287.504 46.14 288.944 46.6467 289.904 47.66C290.864 48.62 291.344 50.0067 291.344 51.82C291.344 53.6867 290.864 55.1 289.904 56.06C288.944 57.02 287.504 57.5 285.584 57.5H258.464ZM306.805 58.22C304.565 58.22 302.858 57.6333 301.685 56.46C300.511 55.2867 299.925 53.5533 299.925 51.26V7.66C299.925 5.31333 300.511 3.52666 301.685 2.3C302.858 1.02 304.405 0.379996 306.325 0.379996C308.031 0.379996 309.365 0.699997 310.325 1.34C311.285 1.98 312.351 3.04666 313.525 4.54L338.885 36.22H336.645V7.26C336.645 5.02 337.205 3.31333 338.325 2.14C339.498 0.966663 341.205 0.379996 343.445 0.379996C345.685 0.379996 347.365 0.966663 348.485 2.14C349.658 3.31333 350.245 5.02 350.245 7.26V51.58C350.245 53.6067 349.711 55.2333 348.645 56.46C347.578 57.6333 346.138 58.22 344.325 58.22C342.511 58.22 341.071 57.9 340.005 57.26C338.991 56.5667 337.898 55.5 336.725 54.06L311.365 22.3H313.605V51.26C313.605 53.5533 313.018 55.2867 311.845 56.46C310.725 57.6333 309.045 58.22 306.805 58.22ZM367.91 58.22C365.563 58.22 363.75 57.58 362.47 56.3C361.19 54.9667 360.55 53.1 360.55 50.7V7.9C360.55 5.44667 361.19 3.58 362.47 2.3C363.75 1.02 365.563 0.379996 367.91 0.379996C370.31 0.379996 372.123 1.02 373.35 2.3C374.63 3.58 375.27 5.44667 375.27 7.9V50.7C375.27 53.1 374.656 54.9667 373.43 56.3C372.203 57.58 370.363 58.22 367.91 58.22ZM393.152 57.5C390.645 57.5 388.725 56.86 387.392 55.58C386.112 54.2467 385.472 52.3533 385.472 49.9V8.7C385.472 6.24667 386.112 4.38 387.392 3.1C388.725 1.76666 390.645 1.1 393.152 1.1H408.832C418.645 1.1 426.218 3.55333 431.552 8.46C436.938 13.3667 439.632 20.3 439.632 29.26C439.632 33.74 438.938 37.74 437.552 41.26C436.165 44.7267 434.165 47.6867 431.552 50.14C428.938 52.54 425.712 54.38 421.872 55.66C418.085 56.8867 413.738 57.5 408.832 57.5H393.152ZM400.192 45.58H407.872C410.698 45.58 413.125 45.2333 415.152 44.54C417.232 43.8467 418.938 42.8333 420.272 41.5C421.658 40.1667 422.672 38.4867 423.312 36.46C424.005 34.4333 424.352 32.0333 424.352 29.26C424.352 23.7133 422.992 19.6333 420.272 17.02C417.552 14.3533 413.418 13.02 407.872 13.02H400.192V45.58ZM518.653 39.02C517.267 39.02 516.147 38.5667 515.293 37.66C514.493 36.7533 513.987 35.5 513.773 33.9L510.973 9.74C510.6 6.96666 511.107 4.72666 512.493 3.02C513.88 1.26 515.933 0.379996 518.653 0.379996C521.427 0.379996 523.48 1.26 524.813 3.02C526.147 4.72666 526.627 6.96666 526.253 9.74L523.533 33.9C523.32 35.5 522.813 36.7533 522.013 37.66C521.213 38.5667 520.093 39.02 518.653 39.02ZM518.653 57.98C516.253 57.98 514.333 57.26 512.893 55.82C511.507 54.38 510.813 52.4867 510.813 50.14C510.813 47.8467 511.507 46.0067 512.893 44.62C514.333 43.18 516.253 42.46 518.653 42.46C521.16 42.46 523.08 43.18 524.413 44.62C525.8 46.0067 526.493 47.8467 526.493 50.14C526.493 52.4867 525.8 54.38 524.413 55.82C523.08 57.26 521.16 57.98 518.653 57.98Z" fill="#2757E6"/>
<path d="M475.562 58.38C469.856 58.38 464.842 57.18 460.522 54.78C456.202 52.3267 452.842 48.9133 450.442 44.54C448.096 40.1667 446.922 35.0733 446.922 29.26C446.922 24.8867 447.589 20.9133 448.922 17.34C450.309 13.7667 452.256 10.7 454.762 8.14C457.322 5.58 460.362 3.63333 463.882 2.3C467.402 0.913331 471.296 0.219998 475.562 0.219998C481.269 0.219998 486.256 1.42 490.522 3.82C494.842 6.22 498.202 9.60666 500.602 13.98C503.002 18.3 504.202 23.3933 504.202 29.26C504.202 33.6333 503.509 37.6067 502.122 41.18C500.789 44.7533 498.842 47.8467 496.282 50.46C493.776 53.02 490.762 54.9933 487.242 56.38C483.722 57.7133 479.829 58.38 475.562 58.38ZM475.562 46.06C478.389 46.06 480.789 45.3933 482.762 44.06C484.736 42.7267 486.256 40.8067 487.322 38.3C488.389 35.7933 488.922 32.78 488.922 29.26C488.922 23.98 487.749 19.8733 485.402 16.94C483.056 14.0067 479.776 12.54 475.562 12.54C472.789 12.54 470.389 13.2067 468.362 14.54C466.389 15.82 464.869 17.7133 463.802 20.22C462.736 22.6733 462.202 25.6867 462.202 29.26C462.202 34.54 463.376 38.6733 465.722 41.66C468.069 44.5933 471.349 46.06 475.562 46.06Z" fill="#6BBE55"/>
</svg>
