<svg width="24" height="24" viewBox="0 0 24 24" fill="none" xmlns="http://www.w3.org/2000/svg">
<mask id="mask0_430_344" style="mask-type:alpha" maskUnits="userSpaceOnUse" x="0" y="0" width="24" height="24">
<rect width="24" height="24" fill="#D9D9D9"/>
</mask>
<g mask="url(#mask0_430_344)">
<path d="M4.16956 21.4804C3.43114 21.4804 2.80486 21.2234 2.29073 20.7092C1.7766 20.1951 1.51953 19.5688 1.51953 18.8304V8.39567C1.51953 7.65726 1.7766 7.03098 2.29073 6.51685C2.80486 6.00271 3.43114 5.74565 4.16956 5.74565H7.56191V3.74565C7.56191 3.00723 7.81898 2.38095 8.33313 1.8668C8.84726 1.35266 9.47354 1.0956 10.212 1.0956H13.788C14.5264 1.0956 15.1527 1.35266 15.6668 1.8668C16.181 2.38095 16.4381 3.00723 16.4381 3.74565V5.74565H19.8304C20.5688 5.74565 21.1951 6.00271 21.7092 6.51685C22.2234 7.03098 22.4804 7.65726 22.4804 8.39567V18.8304C22.4804 19.5688 22.2234 20.1951 21.7092 20.7092C21.1951 21.2234 20.5688 21.4804 19.8304 21.4804H4.16956ZM4.16956 18.8304H19.8304V8.39567H4.16956V18.8304ZM10.212 5.74565H13.788V3.74565H10.212V5.74565Z" fill="#97989B"/>
</g>
</svg>
