<svg width="500" height="51" viewBox="0 0 500 51" fill="none" xmlns="http://www.w3.org/2000/svg">
<g clip-path="url(#clip0_7_102)">
<path d="M26.2976 51.4936C20.8126 51.4936 16.1013 50.4304 12.1638 48.3066C8.22616 46.1828 5.2134 43.1829 3.12804 39.3119C1.04268 35.4409 0 30.9064 0 25.7109C0 21.84 0.596916 18.3199 1.79331 15.156C2.98714 11.9921 4.72153 9.27653 6.99647 7.01184C9.26884 4.74458 12.0357 3.01021 15.2944 1.80613C18.5531 0.602052 22.2217 0 26.3002 0C28.4547 0 30.6938 0.248508 33.0148 0.742948C35.3359 1.23995 37.3854 1.98291 39.1659 2.97436C40.4775 3.68143 41.3921 4.58062 41.9071 5.66685C42.422 6.75309 42.5988 7.8624 42.4348 8.99475C42.2708 10.1297 41.8609 11.1441 41.2051 12.0408C40.5493 12.9374 39.7039 13.5395 38.674 13.8469C37.6415 14.1543 36.5169 14.0006 35.3 13.3858C33.8935 12.7248 32.4973 12.2176 31.1165 11.8615C29.7331 11.5079 28.2907 11.3312 26.792 11.3312C23.8843 11.3312 21.4582 11.8871 19.5138 12.9964C17.5693 14.1057 16.1039 15.7222 15.1202 17.8486C14.1364 19.9749 13.6445 22.5957 13.6445 25.7109C13.6445 28.8262 14.1364 31.4598 15.1202 33.6092C16.1039 35.7586 17.5693 37.3879 19.5138 38.4972C21.4582 39.6065 23.8843 40.1624 26.792 40.1624C28.0089 40.1624 29.3232 40.0087 30.7296 39.7013C32.1361 39.3939 33.5169 38.9122 34.8773 38.2487C36.2838 37.6364 37.5365 37.4699 38.6381 37.7517C39.7397 38.0335 40.6312 38.6022 41.3101 39.4502C41.989 40.3008 42.422 41.282 42.6116 42.3913C42.7986 43.5006 42.6474 44.5996 42.153 45.6858C41.6611 46.7721 40.8055 47.6457 39.586 48.3066C37.9438 49.2981 35.9174 50.0769 33.5041 50.6456C31.0883 51.2118 28.6878 51.4961 26.2976 51.4961V51.4936Z" fill="#2757E6"/>
<path d="M71.8604 51.4936C66.8443 51.4936 62.4379 50.4202 58.6412 48.2708C54.8445 46.1213 51.9035 43.1111 49.8155 39.2402C47.7302 35.3692 46.6875 30.8577 46.6875 25.7109C46.6875 21.84 47.2844 18.3199 48.4808 15.156C49.6746 11.9921 51.386 9.27653 53.6148 7.01184C55.8411 4.74458 58.5003 3.01021 61.595 1.80613C64.6898 0.602052 68.1098 0 71.8604 0C76.8766 0 81.2702 1.06319 85.0438 3.18698C88.8174 5.31333 91.7585 8.2979 93.8694 12.1458C95.9779 15.9963 97.0334 20.5155 97.0334 25.7109C97.0334 29.5845 96.4364 33.1019 95.24 36.2658C94.0437 39.4297 92.3323 42.1581 90.1061 44.4459C87.8772 46.7362 85.218 48.4834 82.1258 49.6875C79.0311 50.8916 75.611 51.4936 71.8604 51.4936ZM71.8604 40.5851C74.3454 40.5851 76.4539 39.9959 78.1908 38.8149C79.9226 37.6339 81.2599 35.9354 82.1976 33.7142C83.1352 31.4956 83.604 28.8262 83.604 25.7109C83.604 21.0355 82.5716 17.4002 80.5093 14.8025C78.4444 12.2073 75.5623 10.9059 71.8604 10.9059C69.4215 10.9059 67.3259 11.4849 65.5659 12.6403C63.8085 13.7983 62.4609 15.4737 61.5233 17.6692C60.5856 19.8648 60.1168 22.5445 60.1168 25.7084C60.1168 30.3838 61.1467 34.0319 63.2116 36.6527C65.2739 39.2735 68.156 40.5851 71.8604 40.5851Z" fill="#2757E6"/>
<path d="M110.744 51.3501C108.777 51.3501 107.276 50.8301 106.246 49.7925C105.213 48.755 104.698 47.2204 104.698 45.1888V6.5866C104.698 4.50893 105.213 2.91543 106.246 1.80615C107.276 0.696856 108.636 0.14093 110.324 0.14093C111.823 0.14093 112.996 0.425284 113.839 0.991457C114.682 1.55763 115.62 2.50297 116.652 3.8249L138.943 31.8748H136.975V6.23306C136.975 4.25018 137.478 2.73865 138.487 1.69854C139.494 0.660978 140.982 0.14093 142.952 0.14093C144.922 0.14093 146.408 0.660978 147.418 1.69854C148.424 2.73865 148.929 4.24761 148.929 6.23306V45.4732C148.929 47.2691 148.46 48.6961 147.523 49.7592C146.585 50.8224 145.319 51.3527 143.726 51.3527C142.133 51.3527 140.877 51.0581 139.963 50.4663C139.048 49.877 138.075 48.9445 137.045 47.6687L114.756 19.5497H116.724V45.1914C116.724 47.223 116.219 48.7575 115.212 49.7951C114.203 50.8326 112.717 51.3527 110.747 51.3527L110.744 51.3501Z" fill="#2757E6"/>
<path d="M164.746 50.7122C162.543 50.7122 160.867 50.1332 159.72 48.9778C158.569 47.8224 157.998 46.1572 157.998 43.9847V7.50628C157.998 5.33382 158.572 3.67116 159.72 2.5132C160.867 1.3578 162.543 0.778809 164.746 0.778809H188.582C190.27 0.778809 191.536 1.20407 192.378 2.05461C193.221 2.90516 193.644 4.13229 193.644 5.73858C193.644 7.34488 193.221 8.654 192.378 9.5276C191.536 10.4012 190.27 10.8393 188.582 10.8393H170.372V20.331H187.037C188.677 20.331 189.932 20.7563 190.8 21.6068C191.666 22.4574 192.102 23.7075 192.102 25.3599C192.102 27.0123 191.669 28.2625 190.8 29.1131C189.932 29.9636 188.679 30.3889 187.037 30.3889H170.372V40.6594H188.582C190.27 40.6594 191.536 41.0975 192.378 41.9711C193.221 42.8447 193.644 44.0847 193.644 45.691C193.644 47.2972 193.221 48.5935 192.378 49.4441C191.536 50.2946 190.27 50.7199 188.582 50.7199H164.746V50.7122Z" fill="#2757E6"/>
<path d="M226.341 51.4936C220.856 51.4936 216.145 50.4304 212.207 48.3066C208.27 46.1828 205.257 43.1829 203.172 39.3119C201.086 35.4409 200.044 30.9064 200.044 25.7109C200.044 21.84 200.64 18.3199 201.837 15.156C203.031 11.9921 204.765 9.27653 207.04 7.01184C209.312 4.74458 212.079 3.01021 215.338 1.80613C218.597 0.602052 222.265 0 226.344 0C228.498 0 230.737 0.248508 233.058 0.742948C235.379 1.23995 237.429 1.98291 239.209 2.97436C240.521 3.68143 241.436 4.58062 241.951 5.66685C242.466 6.75309 242.642 7.8624 242.478 8.99475C242.314 10.1297 241.904 11.1441 241.249 12.0408C240.593 12.9374 239.747 13.5395 238.718 13.8469C237.685 14.1543 236.56 14.0006 235.344 13.3858C233.937 12.7248 232.541 12.2176 231.16 11.8615C229.777 11.5079 228.334 11.3312 226.836 11.3312C223.928 11.3312 221.502 11.8871 219.557 12.9964C217.613 14.1057 216.147 15.7222 215.164 17.8486C214.18 19.9749 213.688 22.5957 213.688 25.7109C213.688 28.8262 214.18 31.4598 215.164 33.6092C216.147 35.7586 217.613 37.3879 219.557 38.4972C221.502 39.6065 223.928 40.1624 226.836 40.1624C228.052 40.1624 229.367 40.0087 230.773 39.7013C232.18 39.3939 233.56 38.9122 234.921 38.2487C236.327 37.6364 237.58 37.4699 238.682 37.7517C239.783 38.0335 240.675 38.6022 241.354 39.4502C242.033 40.3008 242.466 41.282 242.655 42.3913C242.842 43.5006 242.691 44.5996 242.197 45.6858C241.705 46.7721 240.849 47.6457 239.63 48.3066C237.987 49.2981 235.961 50.0769 233.548 50.6456C231.132 51.2118 228.731 51.4961 226.341 51.4961V51.4936Z" fill="#2757E6"/>
<path d="M267.121 51.3501C265.059 51.3501 263.465 50.7711 262.341 49.6157C261.216 48.4603 260.652 46.8438 260.652 44.7636V11.4029H249.613C247.879 11.4029 246.554 10.9417 245.642 10.022C244.728 9.10231 244.272 7.79064 244.272 6.08956C244.272 4.38848 244.728 3.02044 245.642 2.12379C246.557 1.22714 247.879 0.778809 249.613 0.778809H284.629C286.363 0.778809 287.688 1.22714 288.6 2.12379C289.514 3.02044 289.97 4.34493 289.97 6.08956C289.97 7.83419 289.514 9.09975 288.6 10.022C287.685 10.9417 286.361 11.4029 284.629 11.4029H273.59V44.7636C273.59 46.8412 273.052 48.4578 271.973 49.6157C270.895 50.7737 269.278 51.3501 267.121 51.3501Z" fill="#2757E6"/>
<path d="M291.028 51.3501C289.576 51.3501 288.356 51.0068 287.373 50.3228C286.389 49.6388 285.779 48.6935 285.543 47.4894C285.308 46.2853 285.518 44.9275 286.176 43.416L303.684 5.45168C304.527 3.6097 305.569 2.26471 306.812 1.41417C308.052 0.563632 309.471 0.138367 311.065 0.138367C312.658 0.138367 314.054 0.563632 315.248 1.41417C316.442 2.26471 317.487 3.6097 318.376 5.45168L335.884 43.416C336.635 44.9275 336.904 46.2956 336.694 47.5253C336.484 48.755 335.897 49.6977 334.936 50.3587C333.976 51.0197 332.792 51.3501 331.385 51.3501C329.51 51.3501 328.07 50.9249 327.061 50.0743C326.054 49.2238 325.15 47.8557 324.356 45.9651L320.559 36.9704L325.48 40.5826H296.511L301.504 36.9704L297.707 45.9651C296.864 47.8532 295.996 49.2238 295.104 50.0743C294.213 50.9249 292.855 51.3501 291.026 51.3501H291.028ZM310.929 14.3772L302.772 33.9986L300.804 30.599H321.266L319.296 33.9986L311.07 14.3772H310.929Z" fill="#2757E6"/>
<path d="M348.404 51.3501C346.436 51.3501 344.935 50.8301 343.905 49.7925C342.873 48.755 342.358 47.2204 342.358 45.1888V6.5866C342.358 4.50893 342.873 2.91543 343.905 1.80615C344.935 0.696856 346.296 0.14093 347.984 0.14093C349.482 0.14093 350.656 0.425284 351.499 0.991457C352.342 1.55763 353.279 2.50297 354.312 3.8249L376.602 31.8748H374.635V6.23306C374.635 4.25018 375.137 2.73865 376.146 1.69854C377.153 0.660978 378.642 0.14093 380.612 0.14093C382.582 0.14093 384.068 0.660978 385.077 1.69854C386.084 2.73865 386.589 4.24761 386.589 6.23306V45.4732C386.589 47.2691 386.12 48.6961 385.182 49.7592C384.245 50.8224 382.979 51.3527 381.385 51.3527C379.792 51.3527 378.537 51.0581 377.622 50.4663C376.707 49.877 375.734 48.9445 374.704 47.6687L352.416 19.5497H354.383V45.1914C354.383 47.223 353.879 48.7575 352.872 49.7951C351.862 50.8326 350.377 51.3527 348.407 51.3527L348.404 51.3501Z" fill="#2757E6"/>
<path d="M402.403 50.7122C400.2 50.7122 398.524 50.1332 397.377 48.9778C396.226 47.8224 395.655 46.1572 395.655 43.9847V7.50628C395.655 5.33382 396.229 3.67116 397.377 2.5132C398.524 1.3578 400.2 0.778809 402.403 0.778809H416.186C424.809 0.778809 431.48 2.95129 436.192 7.29366C440.903 11.6386 443.257 17.7768 443.257 25.7109C443.257 29.6767 442.647 33.207 441.431 36.2991C440.211 39.3913 438.454 42.0121 436.156 44.1615C433.858 46.3109 431.035 47.9403 427.684 49.0496C424.33 50.1589 420.5 50.7148 416.186 50.7148H402.403V50.7122ZM408.593 40.1599H415.343C417.828 40.1599 419.972 39.8524 421.778 39.2402C423.582 38.6279 425.083 37.7286 426.277 36.5476C427.474 35.3666 428.362 33.8807 428.949 32.0848C429.536 30.2915 429.828 28.1652 429.828 25.7109C429.828 20.7998 428.634 17.1748 426.241 14.8383C423.851 12.4994 420.218 11.3312 415.343 11.3312H408.593V40.1599Z" fill="#2757E6"/>
<path d="M474.827 51.4936C469.811 51.4936 465.405 50.4202 461.608 48.2708C457.811 46.1213 454.87 43.1111 452.782 39.2402C450.697 35.3692 449.654 30.8577 449.654 25.7109C449.654 21.84 450.251 18.3199 451.447 15.156C452.641 11.9921 454.353 9.27653 456.581 7.01184C458.808 4.74458 461.467 3.01021 464.562 1.80613C467.656 0.602052 471.076 0 474.827 0C479.843 0 484.237 1.06319 488.01 3.18698C491.784 5.31333 494.725 8.2979 496.836 12.1458C498.945 15.9963 500 20.5155 500 25.7109C500 29.5845 499.403 33.1019 498.207 36.2658C497.01 39.4297 495.299 42.1581 493.073 44.4459C490.844 46.7362 488.185 48.4834 485.092 49.6875C481.998 50.8916 478.578 51.4936 474.827 51.4936ZM474.827 40.5851C477.312 40.5851 479.421 39.9959 481.155 38.8149C482.887 37.6339 484.224 35.9354 485.162 33.7142C486.099 31.4956 486.568 28.8262 486.568 25.7109C486.568 21.0355 485.536 17.4002 483.473 14.8025C481.409 12.2073 478.526 10.9059 474.825 10.9059C472.386 10.9059 470.29 11.4849 468.53 12.6403C466.773 13.7983 465.425 15.4737 464.487 17.6692C463.55 19.8648 463.081 22.5445 463.081 25.7084C463.081 30.3838 464.111 34.0319 466.176 36.6527C468.238 39.2735 471.12 40.5851 474.825 40.5851H474.827Z" fill="#2757E6"/>
</g>
<defs>
<clipPath id="clip0_7_102">
<rect width="500" height="51" fill="white"/>
</clipPath>
</defs>
</svg>
