<svg width="245" height="256" viewBox="0 0 245 256" fill="none" xmlns="http://www.w3.org/2000/svg">
<g clip-path="url(#clip0_7_101)">
<path d="M148.969 141.002C131.115 168.194 113.848 190.19 97.1651 206.996C80.477 223.81 65.1135 235.028 51.0668 240.659C37.0226 246.295 25.0766 245.878 15.2314 239.414C7.86856 234.58 3.18802 227.26 1.18208 217.454C-0.821305 207.649 -0.278192 195.803 2.81142 181.915C5.90104 168.027 11.6268 152.249 19.9964 134.572C28.361 116.903 39.2002 97.9296 52.5091 77.6627C61.4321 64.0745 70.8162 51.1345 80.6615 38.8478C90.5042 26.5687 99.8243 16.2393 108.622 7.86453C113.184 3.4325 116.85 0.891125 119.628 0.237848C122.405 -0.410305 124.244 0.266029 125.148 2.26941C126.05 4.28048 126.019 7.17795 125.056 10.9644C124.09 14.756 122.174 18.9779 119.307 23.6354C116.435 28.298 112.595 32.9401 107.784 37.5566C100.98 44.0561 94.2599 51.488 87.617 59.8628C80.9766 68.235 74.6539 76.9991 68.6515 86.1373C57.1282 103.689 48.6766 119.362 43.2992 133.158C37.9193 146.961 35.6392 158.554 36.4616 167.93C37.2814 177.314 41.242 184.334 48.3384 188.994C55.3451 193.595 63.3612 194.44 72.3841 191.52C81.407 188.607 91.1805 181.936 101.707 171.512C112.229 161.095 123.25 147.11 134.776 129.558C140.942 120.169 158.22 126.912 148.969 141V141.002Z" fill="#2757E6"/>
<path d="M96.0532 115.184C113.907 87.9921 131.174 65.9959 147.857 49.1901C164.545 32.3765 179.908 21.1581 193.955 15.5271C207.999 9.89098 219.945 10.3086 229.79 16.7722C237.153 21.6064 241.834 28.9257 243.84 38.7325C245.843 48.5368 245.3 60.3829 242.21 74.2708C239.121 88.1587 233.395 103.937 225.025 121.614C216.661 139.283 205.822 158.257 192.513 178.523C183.59 192.112 174.206 205.052 164.36 217.338C154.518 229.617 145.198 239.947 136.4 248.322C131.837 252.754 128.171 255.295 125.394 255.948C122.617 256.596 120.778 255.92 119.873 253.917C118.972 251.906 119.002 249.008 119.966 245.222C120.932 241.43 122.848 237.208 125.715 232.551C128.586 227.888 132.427 223.246 137.238 218.63C144.042 212.13 150.762 204.698 157.405 196.323C164.045 187.951 170.368 179.187 176.37 170.049C187.894 152.497 196.345 136.824 201.723 123.028C207.103 109.225 209.383 97.6324 208.56 88.256C207.74 78.8719 203.78 71.8524 196.683 67.1923C189.677 62.5912 181.661 61.7458 172.638 64.6663C163.615 67.5792 153.841 74.2503 143.315 84.6745C132.793 95.0911 121.772 109.076 110.246 126.628C104.08 136.017 86.8023 129.274 96.0532 115.186V115.184Z" fill="#6BBE55"/>
</g>
<defs>
<clipPath id="clip0_7_101">
<rect width="245" height="256" fill="white"/>
</clipPath>
</defs>
</svg>
