<svg width="280" height="29" viewBox="0 0 280 29" fill="none" xmlns="http://www.w3.org/2000/svg">
<path d="M14.7266 28.785C11.6551 28.785 9.01675 28.1907 6.8117 27.0035C4.60665 25.8163 2.91951 24.1393 1.7517 21.9754C0.583901 19.8115 0 17.2767 0 14.3725C0 12.2086 0.334273 10.2409 1.00425 8.47225C1.6728 6.70362 2.64405 5.1856 3.91802 3.91963C5.19055 2.65223 6.73997 1.68271 8.56484 1.00963C10.3897 0.336548 12.4441 0 14.7281 0C15.9346 0 17.1885 0.138916 18.4883 0.415309C19.7881 0.693135 20.9358 1.10845 21.9329 1.66267C22.6674 2.05793 23.1796 2.56058 23.468 3.16778C23.7563 3.77499 23.8553 4.3951 23.7635 5.02808C23.6717 5.6625 23.4421 6.22959 23.0749 6.73082C22.7076 7.23205 22.2342 7.5686 21.6574 7.74045C21.0793 7.9123 20.4495 7.82637 19.768 7.48267C18.9804 7.11319 18.1985 6.82964 17.4252 6.63058C16.6505 6.43295 15.8428 6.33415 15.0035 6.33415C13.3752 6.33415 12.0166 6.64491 10.9277 7.265C9.83881 7.8851 9.01819 8.78874 8.46729 9.97737C7.91638 11.166 7.64093 12.631 7.64093 14.3725C7.64093 16.1139 7.91638 17.5861 8.46729 18.7876C9.01819 19.9891 9.83881 20.8999 10.9277 21.52C12.0166 22.1401 13.3752 22.4509 15.0035 22.4509C15.685 22.4509 16.421 22.365 17.2086 22.1931C17.9962 22.0213 18.7695 21.752 19.5313 21.3811C20.3189 21.0388 21.0204 20.9458 21.6373 21.1033C22.2542 21.2608 22.7535 21.5787 23.1337 22.0527C23.5139 22.5282 23.7563 23.0767 23.8625 23.6968C23.9672 24.3169 23.8826 24.9313 23.6057 25.5385C23.3302 26.1457 22.8511 26.634 22.1682 27.0035C21.2486 27.5577 20.1137 27.9931 18.7623 28.311C17.4094 28.6275 16.0652 28.7864 14.7266 28.7864V28.785Z" fill="#2757E6"/>
<path d="M40.2418 28.785C37.4328 28.785 34.9652 28.185 32.8391 26.9834C30.7129 25.7819 29.0659 24.0992 27.8967 21.9353C26.7289 19.7714 26.145 17.2495 26.145 14.3725C26.145 12.2086 26.4793 10.2409 27.1493 8.47225C27.8178 6.70362 28.7761 5.1856 30.0243 3.91963C31.271 2.65223 32.7602 1.68271 34.4932 1.00963C36.2263 0.336548 38.1415 0 40.2418 0C43.0509 0 45.5113 0.594326 47.6245 1.78153C49.7378 2.97016 51.3847 4.63854 52.5669 6.78954C53.7476 8.94197 54.3387 11.4682 54.3387 14.3725C54.3387 16.5378 54.0044 18.504 53.3344 20.2727C52.6645 22.0413 51.7061 23.5665 50.4594 24.8453C49.2113 26.1256 47.7221 27.1023 45.9905 27.7754C44.2574 28.4485 42.3422 28.785 40.2418 28.785ZM40.2418 22.6872C41.6335 22.6872 42.8142 22.3578 43.7869 21.6976C44.7567 21.0374 45.5056 20.0879 46.0306 18.8463C46.5557 17.6061 46.8183 16.1139 46.8183 14.3725C46.8183 11.7589 46.2401 9.72676 45.0852 8.27462C43.9289 6.82391 42.3149 6.09642 40.2418 6.09642C38.8761 6.09642 37.7025 6.42007 36.7169 7.06594C35.7327 7.71325 34.9781 8.64983 34.453 9.87714C33.928 11.1044 33.6654 12.6024 33.6654 14.371C33.6654 16.9846 34.2422 19.0239 35.3985 20.4889C36.5534 21.9539 38.1673 22.6872 40.2418 22.6872Z" fill="#2757E6"/>
<path d="M62.0169 28.7048C60.9151 28.7048 60.0744 28.4141 59.4977 27.8341C58.9195 27.2541 58.6311 26.3962 58.6311 25.2606V3.68188C58.6311 2.52045 58.9195 1.62969 59.4977 1.00959C60.0744 0.389499 60.8362 0.0787354 61.7816 0.0787354C62.6209 0.0787354 63.278 0.23769 63.75 0.554181C64.222 0.870673 64.747 1.39912 65.3252 2.13808L77.8081 17.818H76.7063V3.48425C76.7063 2.37581 76.9875 1.53087 77.5527 0.949439C78.1165 0.369443 78.95 0.0787354 80.0533 0.0787354C81.1565 0.0787354 81.9886 0.369443 82.5539 0.949439C83.1177 1.53087 83.4003 2.37438 83.4003 3.48425V25.4196C83.4003 26.4234 83.1378 27.2211 82.6127 27.8155C82.0876 28.4098 81.3789 28.7062 80.4866 28.7062C79.5942 28.7062 78.8912 28.5415 78.3791 28.2107C77.8669 27.8813 77.3217 27.36 76.745 26.6469L64.2636 10.9282H65.3654V25.262C65.3654 26.3977 65.0828 27.2555 64.5189 27.8355C63.9537 28.4155 63.1216 28.7062 62.0184 28.7062L62.0169 28.7048Z" fill="#2757E6"/>
<path d="M92.2578 28.3482C91.024 28.3482 90.0858 28.0245 89.4431 27.3786C88.7989 26.7328 88.479 25.8019 88.479 24.5875V4.19597C88.479 2.98156 88.8003 2.05213 89.4431 1.40483C90.0858 0.758958 91.024 0.435303 92.2578 0.435303H105.606C106.551 0.435303 107.26 0.673027 107.732 1.14848C108.204 1.62393 108.441 2.30991 108.441 3.20783C108.441 4.10575 108.204 4.83755 107.732 5.32589C107.26 5.81424 106.551 6.05912 105.606 6.05912H95.4083V11.365H104.741C105.659 11.365 106.362 11.6027 106.848 12.0782C107.333 12.5537 107.577 13.2525 107.577 14.1762C107.577 15.0999 107.335 15.7988 106.848 16.2742C106.362 16.7497 105.66 16.9874 104.741 16.9874H95.4083V22.7286H105.606C106.551 22.7286 107.26 22.9735 107.732 23.4619C108.204 23.9502 108.441 24.6434 108.441 25.5413C108.441 26.4392 108.204 27.1638 107.732 27.6393C107.26 28.1147 106.551 28.3525 105.606 28.3525H92.2578V28.3482Z" fill="#2757E6"/>
<path d="M126.751 28.785C123.679 28.785 121.041 28.1907 118.836 27.0035C116.631 25.8163 114.944 24.1393 113.776 21.9754C112.608 19.8115 112.024 17.2767 112.024 14.3725C112.024 12.2086 112.359 10.2409 113.029 8.47225C113.697 6.70362 114.668 5.1856 115.942 3.91963C117.215 2.65223 118.764 1.68271 120.589 1.00963C122.414 0.336548 124.469 0 126.752 0C127.959 0 129.213 0.138916 130.513 0.415309C131.812 0.693135 132.96 1.10845 133.957 1.66267C134.692 2.05793 135.204 2.56058 135.492 3.16778C135.781 3.77499 135.88 4.3951 135.788 5.02808C135.696 5.6625 135.467 6.22959 135.099 6.73082C134.732 7.23205 134.259 7.5686 133.682 7.74045C133.104 7.9123 132.474 7.82637 131.792 7.48267C131.005 7.11319 130.223 6.82964 129.45 6.63058C128.675 6.43295 127.867 6.33415 127.028 6.33415C125.4 6.33415 124.041 6.64491 122.952 7.265C121.863 7.8851 121.043 8.78874 120.492 9.97737C119.941 11.166 119.665 12.631 119.665 14.3725C119.665 16.1139 119.941 17.5861 120.492 18.7876C121.043 19.9891 121.863 20.8999 122.952 21.52C124.041 22.1401 125.4 22.4509 127.028 22.4509C127.709 22.4509 128.445 22.365 129.233 22.1931C130.021 22.0213 130.794 21.752 131.556 21.3811C132.343 21.0388 133.045 20.9458 133.662 21.1033C134.279 21.2608 134.778 21.5787 135.158 22.0527C135.538 22.5282 135.781 23.0767 135.887 23.6968C135.992 24.3169 135.907 24.9313 135.63 25.5385C135.355 26.1457 134.875 26.634 134.193 27.0035C133.273 27.5577 132.138 27.9931 130.787 28.311C129.434 28.6275 128.09 28.7864 126.751 28.7864V28.785Z" fill="#2757E6"/>
<path d="M149.588 28.7048C148.433 28.7048 147.541 28.3811 146.911 27.7352C146.281 27.0894 145.965 26.1857 145.965 25.0229V6.37417H139.783C138.812 6.37417 138.07 6.1164 137.56 5.60228C137.048 5.08816 136.792 4.35493 136.792 3.40402C136.792 2.45311 137.048 1.68838 137.56 1.18715C138.072 0.685918 138.812 0.435303 139.783 0.435303H159.392C160.363 0.435303 161.105 0.685918 161.616 1.18715C162.128 1.68838 162.383 2.42877 162.383 3.40402C162.383 4.37927 162.128 5.08672 161.616 5.60228C161.104 6.1164 160.362 6.37417 159.392 6.37417H153.21V25.0229C153.21 26.1843 152.909 27.0879 152.305 27.7352C151.701 28.3825 150.796 28.7048 149.588 28.7048Z" fill="#2757E6"/>
<path d="M162.976 28.7049C162.162 28.7049 161.48 28.513 160.929 28.1306C160.378 27.7482 160.036 27.2198 159.904 26.5467C159.772 25.8736 159.89 25.1146 160.259 24.2697L170.063 3.04754C170.535 2.01787 171.119 1.26602 171.815 0.79057C172.509 0.315117 173.304 0.0773926 174.196 0.0773926C175.089 0.0773926 175.87 0.315117 176.539 0.79057C177.208 1.26602 177.793 2.01787 178.291 3.04754L188.095 24.2697C188.515 25.1146 188.666 25.8793 188.548 26.5667C188.431 27.2542 188.102 27.7812 187.564 28.1506C187.026 28.5201 186.363 28.7049 185.576 28.7049C184.526 28.7049 183.719 28.4671 183.154 27.9917C182.59 27.5162 182.084 26.7515 181.639 25.6946L179.513 20.6665L182.269 22.6858H166.046L168.842 20.6665L166.716 25.6946C166.244 26.7501 165.758 27.5162 165.258 27.9917C164.759 28.4671 163.999 28.7049 162.974 28.7049H162.976ZM174.12 8.03694L169.552 19.0053L168.45 17.1049H179.909L178.806 19.0053L174.199 8.03694H174.12Z" fill="#2757E6"/>
<path d="M195.106 28.7048C194.004 28.7048 193.164 28.4141 192.587 27.8341C192.009 27.2541 191.72 26.3962 191.72 25.2606V3.68188C191.72 2.52045 192.009 1.62969 192.587 1.00959C193.164 0.389499 193.925 0.0787354 194.871 0.0787354C195.71 0.0787354 196.367 0.23769 196.839 0.554181C197.311 0.870673 197.836 1.39912 198.415 2.13808L210.897 17.818H209.796V3.48425C209.796 2.37581 210.077 1.53087 210.642 0.949439C211.206 0.369443 212.039 0.0787354 213.143 0.0787354C214.246 0.0787354 215.078 0.369443 215.643 0.949439C216.207 1.53087 216.49 2.37438 216.49 3.48425V25.4196C216.49 26.4234 216.227 27.2211 215.702 27.8155C215.177 28.4098 214.468 28.7062 213.576 28.7062C212.683 28.7062 211.981 28.5415 211.468 28.2107C210.956 27.8813 210.411 27.36 209.834 26.6469L197.353 10.9282H198.455V25.262C198.455 26.3977 198.172 27.2555 197.608 27.8355C197.043 28.4155 196.211 28.7062 195.108 28.7062L195.106 28.7048Z" fill="#2757E6"/>
<path d="M225.346 28.3482C224.112 28.3482 223.174 28.0245 222.531 27.3786C221.887 26.7328 221.567 25.8019 221.567 24.5875V4.19597C221.567 2.98156 221.888 2.05213 222.531 1.40483C223.174 0.758958 224.112 0.435303 225.346 0.435303H233.064C237.893 0.435303 241.629 1.64972 244.267 4.07711C246.906 6.50594 248.224 9.93723 248.224 14.3724C248.224 16.5893 247.883 18.5627 247.201 20.2912C246.518 22.0198 245.534 23.4848 244.247 24.6863C242.96 25.8878 241.379 26.7986 239.503 27.4187C237.625 28.0388 235.48 28.3496 233.064 28.3496H225.346V28.3482ZM228.812 22.4494H232.592C233.984 22.4494 235.185 22.2775 236.196 21.9353C237.206 21.593 238.047 21.0903 238.715 20.4301C239.385 19.7699 239.883 18.9393 240.212 17.9354C240.54 16.933 240.704 15.7443 240.704 14.3724C240.704 11.6271 240.035 9.60068 238.695 8.29461C237.357 6.98711 235.322 6.33409 232.592 6.33409H228.812V22.4494Z" fill="#2757E6"/>
<path d="M265.903 28.785C263.094 28.785 260.627 28.185 258.5 26.9834C256.374 25.7819 254.727 24.0992 253.558 21.9353C252.39 19.7714 251.806 17.2495 251.806 14.3725C251.806 12.2086 252.141 10.2409 252.811 8.47225C253.479 6.70362 254.437 5.1856 255.686 3.91963C256.932 2.65223 258.421 1.68271 260.155 1.00963C261.888 0.336548 263.803 0 265.903 0C268.712 0 271.173 0.594326 273.286 1.78153C275.399 2.97016 277.046 4.63854 278.228 6.78954C279.409 8.94197 280 11.4682 280 14.3725C280 16.5378 279.666 18.504 278.996 20.2727C278.326 22.0413 277.367 23.5665 276.121 24.8453C274.873 26.1256 273.383 27.1023 271.652 27.7754C269.919 28.4485 268.003 28.785 265.903 28.785ZM265.903 22.6872C267.295 22.6872 268.475 22.3578 269.447 21.6976C270.417 21.0374 271.165 20.0879 271.691 18.8463C272.216 17.6061 272.478 16.1139 272.478 14.3725C272.478 11.7589 271.9 9.72676 270.745 8.27462C269.589 6.82391 267.975 6.09642 265.902 6.09642C264.536 6.09642 263.362 6.42007 262.377 7.06594C261.393 7.71325 260.638 8.64983 260.113 9.87714C259.588 11.1044 259.325 12.6024 259.325 14.371C259.325 16.9846 259.902 19.0239 261.058 20.4889C262.213 21.9539 263.827 22.6872 265.902 22.6872H265.903Z" fill="#2757E6"/>
</svg>
