<svg width="1071" height="256" viewBox="0 0 1071 256" fill="none" xmlns="http://www.w3.org/2000/svg">
<g clip-path="url(#clip0_34_1156)">
<path d="M148.86 140.899C131.02 168.069 113.765 190.05 97.0942 206.844C80.4206 223.646 65.0677 234.855 51.0308 240.483C36.9963 246.113 25.0587 245.699 15.2203 239.237C7.86444 234.407 3.18386 227.092 1.181 217.295C-0.81945 207.497 -0.277158 195.661 2.80788 181.781C5.89532 167.903 11.6171 152.136 19.9804 134.474C28.3389 116.817 39.1703 97.8582 52.4697 77.6054C61.3874 64.0265 70.763 51.0982 80.6014 38.8184C90.4373 26.5481 99.7503 16.2253 108.54 7.85956C113.098 3.42964 116.764 0.891719 119.538 0.236149C122.312 -0.41219 124.151 0.265071 125.055 2.26552C125.956 4.27562 125.925 7.17025 124.963 10.9542C123.999 14.743 122.083 18.9633 119.217 23.6173C116.347 28.2786 112.51 32.9158 107.701 37.5289C100.902 44.0244 94.1876 51.4501 87.5475 59.8183C80.9123 68.184 74.5928 76.9402 68.5962 86.0748C57.0804 103.614 48.6351 119.275 43.2628 133.061C37.8857 146.852 35.6105 158.438 36.4323 167.809C37.2518 177.187 41.2093 184.201 48.3001 188.857C55.3017 193.456 63.3107 194.299 72.3296 191.381C81.3461 188.471 91.1146 181.802 101.633 171.388C112.146 160.978 123.16 147.004 134.676 129.465C140.837 120.082 158.103 126.821 148.86 140.899Z" fill="#2757E6"/>
<path d="M95.9831 115.101C113.823 87.9306 131.078 65.9497 147.749 49.1556C164.423 32.3542 179.776 21.1444 193.812 15.5167C207.847 9.88648 219.785 10.301 229.623 16.7627C236.979 21.5927 241.659 28.9076 243.662 38.705C245.663 48.5024 245.12 60.3388 242.035 74.2191C238.948 88.0969 233.226 103.864 224.863 121.526C216.504 139.183 205.673 158.142 192.374 178.394C183.456 191.973 174.08 204.902 164.242 217.181C154.406 229.452 145.093 239.775 136.303 248.14C131.745 252.57 128.08 255.108 125.305 255.764C122.531 256.412 120.692 255.735 119.789 253.734C118.887 251.724 118.918 248.83 119.88 245.046C120.844 241.257 122.76 237.037 125.626 232.383C128.497 227.721 132.334 223.084 137.142 218.471C143.941 211.975 150.656 204.55 157.296 196.182C163.931 187.816 170.251 179.06 176.247 169.925C187.763 152.386 196.208 136.725 201.58 122.939C206.958 109.147 209.233 97.5617 208.411 88.1909C207.591 78.8129 203.634 71.7993 196.543 67.1428C189.542 62.5442 181.533 61.7006 172.514 64.6193C163.497 67.5284 153.729 74.1974 143.211 84.6118C132.697 95.0214 121.683 108.996 110.167 126.535C104.007 135.917 86.7401 129.178 95.9831 115.101Z" fill="#6BBE55"/>
<path d="M360.279 166.592C352.058 166.592 344.996 164.999 339.093 161.815C333.193 158.631 328.677 154.136 325.551 148.332C322.425 142.529 320.86 135.734 320.86 127.947C320.86 122.146 321.757 116.87 323.55 112.129C325.341 107.388 327.939 103.317 331.347 99.919C334.755 96.5207 338.898 93.9201 343.784 92.1148C348.667 90.3096 354.167 89.4082 360.279 89.4082C363.509 89.4082 366.866 89.7794 370.344 90.5217C373.822 91.264 376.895 92.38 379.565 93.867C381.532 94.9275 382.901 96.2748 383.675 97.9017C384.448 99.531 384.711 101.194 384.465 102.891C384.219 104.59 383.605 106.113 382.621 107.456C381.636 108.801 380.37 109.704 378.828 110.162C377.28 110.623 375.596 110.394 373.769 109.473C371.66 108.482 369.568 107.721 367.497 107.191C365.425 106.66 363.263 106.395 361.016 106.395C356.659 106.395 353.022 107.229 350.108 108.89C347.192 110.553 344.996 112.977 343.521 116.161C342.046 119.347 341.308 123.274 341.308 127.947C341.308 132.62 342.046 136.566 343.521 139.783C344.996 143.006 347.192 145.447 350.108 147.11C353.022 148.773 356.659 149.605 361.016 149.605C362.841 149.605 364.81 149.376 366.919 148.916C369.026 148.455 371.098 147.732 373.137 146.739C375.244 145.821 377.124 145.57 378.775 145.997C380.423 146.421 381.761 147.269 382.78 148.544C383.798 149.819 384.448 151.287 384.73 152.95C385.01 154.613 384.783 156.259 384.043 157.886C383.306 159.516 382.024 160.824 380.197 161.815C377.736 163.302 374.699 164.469 371.081 165.319C367.461 166.168 363.863 166.592 360.279 166.592Z" fill="#2757E6"/>
<path d="M428.574 166.592C421.054 166.592 414.453 164.982 408.76 161.762C403.069 158.542 398.659 154.03 395.533 148.224C392.407 142.423 390.842 135.662 390.842 127.945C390.842 122.143 391.739 116.867 393.532 112.127C395.323 107.386 397.887 103.315 401.226 99.9166C404.561 96.5182 408.55 93.9176 413.187 92.1124C417.824 90.3072 422.951 89.4058 428.574 89.4058C436.091 89.4058 442.678 90.9989 448.335 94.1827C453.989 97.369 458.4 101.845 461.562 107.612C464.724 113.382 466.305 120.157 466.305 127.945C466.305 133.748 465.409 139.022 463.618 143.763C461.825 148.506 459.26 152.594 455.925 156.026C452.587 159.46 448.598 162.078 443.961 163.883C439.323 165.688 434.194 166.589 428.574 166.589V166.592ZM428.574 150.241C432.298 150.241 435.46 149.357 438.06 147.588C440.659 145.818 442.661 143.271 444.067 139.945C445.472 136.619 446.175 132.618 446.175 127.947C446.175 120.941 444.628 115.491 441.538 111.596C438.446 107.704 434.125 105.756 428.574 105.756C424.92 105.756 421.777 106.624 419.14 108.357C416.506 110.092 414.486 112.604 413.081 115.896C411.674 119.188 410.975 123.204 410.975 127.947C410.975 134.953 412.52 140.422 415.612 144.351C418.702 148.279 423.023 150.244 428.574 150.244V150.241Z" fill="#2757E6"/>
<path d="M486.857 166.38C483.907 166.38 481.656 165.599 480.113 164.044C478.566 162.487 477.795 160.188 477.795 157.144V99.2827C477.795 96.1687 478.566 93.7802 480.113 92.1172C481.658 90.4542 483.695 89.6227 486.225 89.6227C488.472 89.6227 490.229 90.0469 491.494 90.8977C492.759 91.7485 494.165 93.1632 495.71 95.1444L527.881 135.631C528.382 136.26 527.934 137.188 527.129 137.188C526.598 137.188 526.169 136.759 526.169 136.228V98.7549C526.169 95.7831 526.924 93.5175 528.435 91.9606C529.944 90.4036 532.176 89.6251 535.128 89.6251C538.081 89.6251 540.308 90.406 541.819 91.9606C543.33 93.5175 544.087 95.7831 544.087 98.7549V157.573C544.087 160.263 543.383 162.405 541.978 163.996C540.57 165.589 538.674 166.385 536.287 166.385C533.901 166.385 532.019 165.941 530.648 165.057C529.279 164.172 527.818 162.774 526.273 160.863L494.1 120.271C493.601 119.642 494.049 118.714 494.852 118.714H494.854C495.384 118.714 495.813 119.143 495.813 119.673V157.146C495.813 160.19 495.056 162.492 493.548 164.047C492.034 165.604 489.807 166.382 486.855 166.382L486.857 166.38Z" fill="#2757E6"/>
<path d="M567.798 165.423C564.496 165.423 561.985 164.558 560.264 162.822C558.541 161.089 557.683 158.595 557.683 155.339V100.661C557.683 97.4052 558.541 94.9106 560.264 93.1753C561.985 91.4424 564.496 90.5747 567.798 90.5747H603.527C606.057 90.5747 607.954 91.211 609.22 92.486C610.482 93.7586 611.116 95.6024 611.116 98.0053C611.116 100.408 610.482 102.377 609.22 103.686C607.954 104.997 606.057 105.65 603.527 105.65H577.191C576.66 105.65 576.231 106.079 576.231 106.61V118.916C576.231 119.446 576.66 119.875 577.191 119.875H601.208C603.666 119.875 605.546 120.512 606.848 121.787C608.147 123.059 608.798 124.937 608.798 127.414C608.798 129.892 608.147 131.767 606.848 133.042C605.546 134.315 603.666 134.953 601.208 134.953H577.191C576.66 134.953 576.231 135.382 576.231 135.913V149.386C576.231 149.916 576.66 150.345 577.191 150.345H603.527C606.057 150.345 607.954 151 609.22 152.309C610.482 153.62 611.116 155.479 611.116 157.884C611.116 160.289 610.482 162.237 609.22 163.512C607.954 164.784 606.057 165.423 603.527 165.423H567.798Z" fill="#2757E6"/>
<path d="M660.123 166.592C651.901 166.592 644.84 164.999 638.937 161.815C633.037 158.631 628.52 154.136 625.394 148.332C622.268 142.529 620.704 135.734 620.704 127.947C620.704 122.146 621.601 116.87 623.394 112.129C625.185 107.388 627.783 103.317 631.191 99.919C634.599 96.5207 638.742 93.9201 643.627 92.1148C648.51 90.3096 654.01 89.4082 660.123 89.4082C663.352 89.4082 666.71 89.7794 670.187 90.5217C673.665 91.264 676.738 92.38 679.409 93.867C681.376 94.9275 682.745 96.2748 683.518 97.9017C684.292 99.531 684.555 101.194 684.309 102.891C684.063 104.59 683.448 106.113 682.465 107.456C681.479 108.801 680.214 109.704 678.671 110.162C677.124 110.623 675.439 110.394 673.612 109.473C671.503 108.482 669.411 107.721 667.341 107.191C665.268 106.66 663.106 106.395 660.86 106.395C656.502 106.395 652.866 107.229 649.952 108.89C647.035 110.553 644.84 112.977 643.365 116.161C641.89 119.347 641.152 123.274 641.152 127.947C641.152 132.62 641.89 136.566 643.365 139.783C644.84 143.006 647.035 145.447 649.952 147.11C652.866 148.773 656.502 149.605 660.86 149.605C662.685 149.605 664.654 149.376 666.763 148.916C668.869 148.455 670.942 147.732 672.981 146.739C675.087 145.821 676.967 145.57 678.618 145.997C680.267 146.421 681.605 147.269 682.624 148.544C683.641 149.819 684.292 151.287 684.574 152.95C684.853 154.613 684.627 156.259 683.887 157.886C683.149 159.516 681.867 160.824 680.04 161.815C677.58 163.302 674.543 164.469 670.925 165.319C667.305 166.168 663.707 166.592 660.123 166.592Z" fill="#2757E6"/>
<path d="M721.25 166.38C718.157 166.38 715.771 165.512 714.084 163.779C712.397 162.046 711.553 159.622 711.553 156.508V107.463C711.553 106.933 711.124 106.504 710.594 106.504H695.008C692.407 106.504 690.423 105.814 689.054 104.433C687.683 103.052 686.999 101.088 686.999 98.5404C686.999 95.9928 687.683 93.9394 689.054 92.5945C690.423 91.252 692.407 90.5771 695.008 90.5771H747.494C750.092 90.5771 752.078 91.2496 753.447 92.5945C754.819 93.9394 755.503 95.9229 755.503 98.5404C755.503 101.158 754.819 103.052 753.447 104.433C752.078 105.812 750.092 106.504 747.494 106.504H731.907C731.377 106.504 730.948 106.933 730.948 107.463V156.508C730.948 159.624 730.141 162.046 728.526 163.779C726.909 165.512 724.484 166.38 721.252 166.38H721.25Z" fill="#2757E6"/>
<path d="M757.087 166.38C754.908 166.38 753.081 165.866 751.606 164.84C750.131 163.815 749.215 162.398 748.866 160.593C748.514 158.788 748.829 156.753 749.813 154.488L776.057 97.581C777.32 94.8214 778.884 92.8041 780.747 91.5291C782.608 90.2541 784.734 89.6178 787.122 89.6178C789.511 89.6178 791.603 90.2541 793.394 91.5291C795.184 92.8017 796.749 94.8214 798.084 97.581L824.326 154.488C825.449 156.753 825.854 158.807 825.538 160.646C825.223 162.487 824.343 163.902 822.904 164.893C821.463 165.883 819.689 166.38 817.58 166.38C814.77 166.38 812.61 165.743 811.099 164.468C809.588 163.193 808.236 161.142 807.043 158.31L802.704 148.036C802.326 147.137 803.372 146.31 804.158 146.889L806.363 148.508C807.11 149.058 806.722 150.244 805.794 150.244H768.27C767.34 150.244 766.952 149.05 767.706 148.506L770.003 146.845C770.791 146.276 771.83 147.101 771.451 147.997L767.096 158.313C765.831 161.145 764.529 163.196 763.197 164.471C761.861 165.743 759.825 166.382 757.084 166.382L757.087 166.38ZM786.913 110.96L775.431 138.576C775.125 139.311 774.11 139.376 773.712 138.689L772.57 136.715C772.199 136.074 772.661 135.274 773.401 135.274H800.74C801.48 135.274 801.943 136.076 801.571 136.715L800.424 138.696C800.027 139.383 799.014 139.318 798.708 138.585L787.125 110.96H786.915H786.913Z" fill="#2757E6"/>
<path d="M843.084 166.38C840.134 166.38 837.883 165.599 836.341 164.044C834.793 162.487 834.022 160.188 834.022 157.144V99.2827C834.022 96.1687 834.793 93.7802 836.341 92.1172C837.886 90.4542 839.922 89.6227 842.453 89.6227C844.699 89.6227 846.456 90.0469 847.722 90.8977C848.987 91.7485 850.392 93.1632 851.937 95.1444L884.108 135.631C884.609 136.26 884.161 137.188 883.356 137.188C882.826 137.188 882.397 136.759 882.397 136.228V98.7549C882.397 95.7831 883.151 93.5175 884.663 91.9606C886.171 90.4036 888.403 89.6251 891.356 89.6251C894.308 89.6251 896.535 90.406 898.046 91.9606C899.557 93.5175 900.314 95.7831 900.314 98.7549V157.573C900.314 160.263 899.61 162.405 898.205 163.996C896.798 165.589 894.901 166.385 892.515 166.385C890.129 166.385 888.246 165.941 886.875 165.057C885.506 164.172 884.046 162.774 882.501 160.863L850.327 120.271C849.828 119.642 850.276 118.714 851.079 118.714H851.081C851.612 118.714 852.041 119.143 852.041 119.673V157.146C852.041 160.19 851.284 162.492 849.775 164.047C848.262 165.604 846.034 166.382 843.082 166.382L843.084 166.38Z" fill="#2757E6"/>
<path d="M924.026 165.423C920.724 165.423 918.212 164.558 916.491 162.822C914.768 161.089 913.91 158.595 913.91 155.339V100.661C913.91 97.4052 914.768 94.9106 916.491 93.1753C918.212 91.4424 920.724 90.5747 924.026 90.5747H944.683C957.609 90.5747 967.606 93.8309 974.668 100.341C981.73 106.853 985.259 116.055 985.259 127.945C985.259 133.891 984.345 139.181 982.521 143.818C980.691 148.455 978.057 152.381 974.615 155.601C971.171 158.824 966.936 161.265 961.916 162.928C956.891 164.591 951.147 165.423 944.683 165.423H924.026ZM933.302 148.643C933.302 149.173 933.731 149.603 934.262 149.603H943.418C947.142 149.603 950.357 149.142 953.063 148.221C955.768 147.303 958.016 145.956 959.807 144.187C961.6 142.418 962.933 140.188 963.813 137.499C964.69 134.809 965.129 131.625 965.129 127.942C965.129 120.581 963.338 115.149 959.754 111.645C956.173 108.14 950.726 106.388 943.418 106.388H934.262C933.731 106.388 933.302 106.817 933.302 107.347V148.638V148.643Z" fill="#2757E6"/>
<path d="M1032.58 166.592C1025.06 166.592 1018.46 164.982 1012.77 161.762C1007.08 158.542 1002.66 154.03 999.539 148.224C996.413 142.423 994.849 135.662 994.849 127.945C994.849 122.143 995.745 116.867 997.539 112.127C999.329 107.386 1001.89 103.315 1005.23 99.9166C1008.57 96.5182 1012.56 93.9176 1017.19 92.1124C1021.83 90.3072 1026.96 89.4058 1032.58 89.4058C1040.1 89.4058 1046.68 90.9989 1052.34 94.1827C1058 97.369 1062.41 101.845 1065.57 107.612C1068.73 113.382 1070.31 120.157 1070.31 127.945C1070.31 133.748 1069.42 139.022 1067.62 143.763C1065.83 148.506 1063.27 152.594 1059.93 156.026C1056.59 159.46 1052.6 162.078 1047.97 163.883C1043.33 165.688 1038.2 166.589 1032.58 166.589V166.592ZM1032.58 150.241C1036.3 150.241 1039.47 149.357 1042.07 147.588C1044.66 145.818 1046.67 143.271 1048.07 139.945C1049.48 136.619 1050.18 132.618 1050.18 127.947C1050.18 120.941 1048.63 115.491 1045.54 111.596C1042.45 107.704 1038.13 105.756 1032.58 105.756C1028.93 105.756 1025.78 106.624 1023.15 108.357C1020.51 110.092 1018.49 112.604 1017.09 115.896C1015.68 119.188 1014.98 123.204 1014.98 127.947C1014.98 134.953 1016.53 140.422 1019.62 144.351C1022.71 148.279 1027.03 150.244 1032.58 150.244V150.241Z" fill="#2757E6"/>
</g>
<defs>
<clipPath id="clip0_34_1156">
<rect width="1070.31" height="256" fill="white"/>
</clipPath>
</defs>
</svg>
