<svg width="32" height="32" viewBox="0 0 32 32" fill="none" xmlns="http://www.w3.org/2000/svg">
<mask id="mask0_130_625" style="mask-type:alpha" maskUnits="userSpaceOnUse" x="0" y="0" width="32" height="32">
<rect width="32" height="32" fill="#D9D9D9"/>
</mask>
<g mask="url(#mask0_130_625)">
<path d="M8 29.3334C6.88889 29.3334 5.94444 28.9445 5.16667 28.1667C4.38889 27.389 4 26.4445 4 25.3334V24.0001C4 23.2667 4.26111 22.639 4.78333 22.1167C5.30556 21.5945 5.93333 21.3334 6.66667 21.3334H8V5.33341C8 4.60008 8.26111 3.9723 8.78333 3.45008C9.30556 2.92786 9.93333 2.66675 10.6667 2.66675H25.3333C26.0667 2.66675 26.6944 2.92786 27.2167 3.45008C27.7389 3.9723 28 4.60008 28 5.33341V25.3334C28 26.4445 27.6111 27.389 26.8333 28.1667C26.0556 28.9445 25.1111 29.3334 24 29.3334H8ZM24 26.6667C24.3778 26.6667 24.6944 26.539 24.95 26.2834C25.2056 26.0279 25.3333 25.7112 25.3333 25.3334V5.33341H10.6667V21.3334H20C20.7333 21.3334 21.3611 21.5945 21.8833 22.1167C22.4056 22.639 22.6667 23.2667 22.6667 24.0001V25.3334C22.6667 25.7112 22.7944 26.0279 23.05 26.2834C23.3056 26.539 23.6222 26.6667 24 26.6667ZM13.3333 12.0001C12.9556 12.0001 12.6389 11.8723 12.3833 11.6167C12.1278 11.3612 12 11.0445 12 10.6667C12 10.289 12.1278 9.9723 12.3833 9.71675C12.6389 9.46119 12.9556 9.33342 13.3333 9.33342H22.6667C23.0444 9.33342 23.3611 9.46119 23.6167 9.71675C23.8722 9.9723 24 10.289 24 10.6667C24 11.0445 23.8722 11.3612 23.6167 11.6167C23.3611 11.8723 23.0444 12.0001 22.6667 12.0001H13.3333ZM13.3333 16.0001C12.9556 16.0001 12.6389 15.8723 12.3833 15.6167C12.1278 15.3612 12 15.0445 12 14.6667C12 14.289 12.1278 13.9723 12.3833 13.7167C12.6389 13.4612 12.9556 13.3334 13.3333 13.3334H22.6667C23.0444 13.3334 23.3611 13.4612 23.6167 13.7167C23.8722 13.9723 24 14.289 24 14.6667C24 15.0445 23.8722 15.3612 23.6167 15.6167C23.3611 15.8723 23.0444 16.0001 22.6667 16.0001H13.3333ZM8 26.6667H20V24.0001H6.66667V25.3334C6.66667 25.7112 6.79444 26.0279 7.05 26.2834C7.30556 26.539 7.62222 26.6667 8 26.6667ZM8 26.6667H6.66667H20H8Z" fill="#171717"/>
</g>
</svg>
