<svg width="32" height="33" viewBox="0 0 32 33" fill="none" xmlns="http://www.w3.org/2000/svg">
<mask id="mask0_130_571" style="mask-type:alpha" maskUnits="userSpaceOnUse" x="0" y="0" width="32" height="33">
<rect y="0.5" width="32" height="32" fill="#D9D9D9"/>
</mask>
<g mask="url(#mask0_130_571)">
<path d="M11.7333 15.0999L14.6 12.1999L12.7333 10.2999L12.2 10.8333C11.9556 11.0777 11.65 11.2055 11.2833 11.2166C10.9167 11.2277 10.6 11.0999 10.3333 10.8333C10.0667 10.5666 9.93333 10.2499 9.93333 9.88326C9.93333 9.51659 10.0667 9.19992 10.3333 8.93326L10.8333 8.43326L9.33333 6.93326L6.43333 9.83326L11.7333 15.0999ZM22.6667 26.0666L25.5667 23.1666L24.0667 21.6666L23.5333 22.1666C23.2667 22.4333 22.9556 22.5666 22.6 22.5666C22.2444 22.5666 21.9333 22.4333 21.6667 22.1666C21.4 21.8999 21.2667 21.5888 21.2667 21.2333C21.2667 20.8777 21.4 20.5666 21.6667 20.2999L22.1667 19.7666L20.2667 17.8999L17.4 20.7666L22.6667 26.0666ZM5.33333 28.4999C4.95556 28.4999 4.63889 28.3721 4.38333 28.1166C4.12778 27.861 4 27.5444 4 27.1666V23.3999C4 23.2221 4.03333 23.0499 4.1 22.8833C4.16667 22.7166 4.26667 22.5666 4.4 22.4333L9.83333 16.9999L4.06667 11.2333C3.68889 10.8555 3.5 10.3888 3.5 9.83326C3.5 9.2777 3.68889 8.81103 4.06667 8.43326L7.93333 4.56659C8.31111 4.18881 8.77778 4.00548 9.33333 4.01659C9.88889 4.0277 10.3556 4.22215 10.7333 4.59992L16.5333 10.3666L21.5667 5.29992C21.8333 5.03326 22.1333 4.83326 22.4667 4.69992C22.8 4.56659 23.1444 4.49992 23.5 4.49992C23.8556 4.49992 24.2 4.56659 24.5333 4.69992C24.8667 4.83326 25.1667 5.03326 25.4333 5.29992L27.2 7.09992C27.4667 7.36659 27.6667 7.66659 27.8 7.99992C27.9333 8.33326 28 8.6777 28 9.03326C28 9.38881 27.9333 9.7277 27.8 10.0499C27.6667 10.3721 27.4667 10.6666 27.2 10.9333L22.1667 15.9999L27.9333 21.7666C28.3111 22.1444 28.5 22.611 28.5 23.1666C28.5 23.7221 28.3111 24.1888 27.9333 24.5666L24.0667 28.4333C23.6889 28.811 23.2222 28.9999 22.6667 28.9999C22.1111 28.9999 21.6444 28.811 21.2667 28.4333L15.5 22.6666L10.0667 28.0999C9.93333 28.2333 9.78333 28.3333 9.61667 28.3999C9.45 28.4666 9.27778 28.4999 9.1 28.4999H5.33333ZM6.66667 25.8333H8.53333L21.6 12.7999L19.7 10.8999L6.66667 23.9666V25.8333Z" fill="#171717"/>
</g>
</svg>
