<svg width="20" height="20" viewBox="0 0 20 20" fill="none" xmlns="http://www.w3.org/2000/svg">
              <mask id="mask0_265_61" style="mask-type:alpha" maskUnits="userSpaceOnUse" x="0" y="0" width="20" height="20">
                <rect width="20" height="20" fill="#D9D9D9" />
              </mask>
              <g mask="url(#mask0_265_61)">
                <path d="M13.3333 6.99996L5.91665 14.4166C5.76387 14.5694 5.56942 14.6458 5.33331 14.6458C5.0972 14.6458 4.90276 14.5694 4.74998 14.4166C4.5972 14.2638 4.52081 14.0694 4.52081 13.8333C4.52081 13.5972 4.5972 13.4027 4.74998 13.25L12.1666 5.83329H5.83331C5.5972 5.83329 5.39929 5.75343 5.23956 5.59371C5.07984 5.43399 4.99998 5.23607 4.99998 4.99996C4.99998 4.76385 5.07984 4.56593 5.23956 4.40621C5.39929 4.24649 5.5972 4.16663 5.83331 4.16663H14.1666C14.4028 4.16663 14.6007 4.24649 14.7604 4.40621C14.9201 4.56593 15 4.76385 15 4.99996V13.3333C15 13.5694 14.9201 13.7673 14.7604 13.927C14.6007 14.0868 14.4028 14.1666 14.1666 14.1666C13.9305 14.1666 13.7326 14.0868 13.5729 13.927C13.4132 13.7673 13.3333 13.5694 13.3333 13.3333V6.99996Z" fill="#B9BBC1" />
              </g>
            </svg>