<svg width="32" height="32" viewBox="0 0 32 32" fill="none" xmlns="http://www.w3.org/2000/svg">
<g id="Facebook-Icon" clip-path="url(#clip0_98_350)">
<path id="Vector" fill-rule="evenodd" clip-rule="evenodd" d="M27.6371 0C30.0472 0 32.0009 1.95372 32.0009 4.36375V27.6371C32.0009 30.0472 30.0472 32.0009 27.6371 32.0009H4.36375C1.95372 32.0009 0 30.0472 0 27.6371V4.36375C0 1.95372 1.95372 0 4.36375 0H27.6371ZM27.6371 2.90917C28.4405 2.90917 29.0917 3.56041 29.0917 4.36375V27.6371C29.0917 28.4405 28.4405 29.0917 27.6371 29.0917H20.3642V18.9094H23.3842C24.0102 18.9094 24.566 18.5089 24.7642 17.9148L25.4085 15.9817C25.644 15.2752 25.1182 14.5457 24.3736 14.5457H20.3642V11.6366C20.3642 10.9093 21.0915 10.182 21.8188 10.182H24.7279C25.5313 10.182 26.1825 9.53073 26.1825 8.72739V7.72956C26.1825 7.2597 25.8824 6.83844 25.428 6.71853C23.5214 6.21536 21.8188 6.21537 21.8188 6.21537C18.1823 6.21537 16.0004 8.72739 16.0004 10.9093V14.5457H13.0913C12.2879 14.5457 11.6367 15.1969 11.6367 16.0003V17.4549C11.6367 18.2582 12.2879 18.9094 13.0913 18.9094H16.0004V29.0917H4.36375C3.56041 29.0917 2.90917 28.4405 2.90917 27.6371V4.36375C2.90917 3.56041 3.56041 2.90917 4.36375 2.90917H27.6371Z" fill="#FBFCFF"/>
</g>
<defs>
<clipPath id="clip0_98_350">
<rect width="32" height="32" fill="white"/>
</clipPath>
</defs>
</svg>
