<svg width="40" height="40" viewBox="0 0 40 40" fill="none" xmlns="http://www.w3.org/2000/svg">
<path d="M16.0033 35.0434V22.9201H11.3633C11.1224 22.9201 10.8913 22.8244 10.721 22.654C10.5507 22.4837 10.455 22.2527 10.455 22.0117V17.2167C10.455 16.9758 10.5507 16.7448 10.721 16.5745C10.8913 16.4041 11.1224 16.3084 11.3633 16.3084H15.985V11.6667C15.8744 10.566 16.0062 9.45439 16.371 8.41001C16.7359 7.36562 17.325 6.41378 18.0969 5.62134C18.8689 4.8289 19.805 4.21508 20.8394 3.82299C21.8739 3.4309 22.9817 3.27005 24.085 3.35175H27.9516C28.1948 3.35127 28.4285 3.44641 28.6021 3.61666C28.7758 3.7869 28.8756 4.01859 28.88 4.26175V8.32175C28.8747 8.56447 28.7746 8.79549 28.6011 8.96528C28.4275 9.13508 28.1944 9.23014 27.9516 9.23008H25.535C22.925 9.23008 22.4233 10.4667 22.4233 12.2851V16.3067H28.6283C28.7573 16.3025 28.8856 16.3263 29.0044 16.3767C29.1232 16.4271 29.2296 16.5027 29.3162 16.5983C29.4028 16.694 29.4676 16.8074 29.5059 16.9306C29.5443 17.0538 29.5553 17.1838 29.5383 17.3117L28.9766 22.1251C28.9485 22.3455 28.8405 22.548 28.6731 22.6942C28.5057 22.8404 28.2905 22.9202 28.0683 22.9184H22.4616V35.0417C22.4643 35.2558 22.4241 35.4683 22.3434 35.6665C22.2626 35.8648 22.143 36.0449 21.9916 36.1962C21.8401 36.3475 21.6599 36.4669 21.4615 36.5475C21.2632 36.628 21.0507 36.668 20.8366 36.6651H17.6083C17.3958 36.6655 17.1854 36.6237 16.9893 36.5421C16.7932 36.4604 16.6152 36.3406 16.4658 36.1895C16.3165 36.0384 16.1987 35.8592 16.1192 35.6621C16.0398 35.4651 16.0004 35.2558 16.0033 35.0434Z" fill="#FBFCFF"/>
</svg>
