<svg width="24" height="24" viewBox="0 0 24 24" fill="none" xmlns="http://www.w3.org/2000/svg">
<mask id="mask0_115_10" style="mask-type:alpha" maskUnits="userSpaceOnUse" x="0" y="0" width="24" height="24">
<rect x="0.951416" width="24" height="24" fill="#D9D9D9"/>
</mask>
<g mask="url(#mask0_115_10)">
<path d="M12.9514 14C13.5014 14 13.9722 13.8042 14.3639 13.4125C14.7556 13.0208 14.9514 12.55 14.9514 12C14.9514 11.45 14.7556 10.9792 14.3639 10.5875C13.9722 10.1958 13.5014 10 12.9514 10C12.4014 10 11.9306 10.1958 11.5389 10.5875C11.1472 10.9792 10.9514 11.45 10.9514 12C10.9514 12.55 11.1472 13.0208 11.5389 13.4125C11.9306 13.8042 12.4014 14 12.9514 14ZM8.95142 18H16.9514V17.425C16.9514 17.025 16.8431 16.6583 16.6264 16.325C16.4097 15.9917 16.1097 15.7417 15.7264 15.575C15.2931 15.3917 14.8472 15.25 14.3889 15.15C13.9306 15.05 13.4514 15 12.9514 15C12.4514 15 11.9722 15.05 11.5139 15.15C11.0556 15.25 10.6097 15.3917 10.1764 15.575C9.79308 15.7417 9.49308 15.9917 9.27642 16.325C9.05975 16.6583 8.95142 17.025 8.95142 17.425V18ZM18.9514 22H6.95142C6.40142 22 5.93058 21.8042 5.53892 21.4125C5.14725 21.0208 4.95142 20.55 4.95142 20V4C4.95142 3.45 5.14725 2.97917 5.53892 2.5875C5.93058 2.19583 6.40142 2 6.95142 2H14.1264C14.3931 2 14.6472 2.05 14.8889 2.15C15.1306 2.25 15.3431 2.39167 15.5264 2.575L20.3764 7.425C20.5597 7.60833 20.7014 7.82083 20.8014 8.0625C20.9014 8.30417 20.9514 8.55833 20.9514 8.825V20C20.9514 20.55 20.7556 21.0208 20.3639 21.4125C19.9722 21.8042 19.5014 22 18.9514 22ZM18.9514 20V8.85L14.1014 4H6.95142V20H18.9514Z" fill="#171717"/>
</g>
</svg>
