<svg width="550" height="397" viewBox="0 0 550 397" fill="none" xmlns="http://www.w3.org/2000/svg">
<g clip-path="url(#clip0_632_2516)">
<path d="M299.946 163.523C278.281 195.007 257.346 220.473 237.097 239.944C216.847 259.415 198.226 272.395 181.162 278.933C164.122 285.447 149.631 284.975 137.689 277.493C128.768 271.9 123.08 263.427 120.649 252.075C118.218 240.723 118.879 227.01 122.631 210.914C126.384 194.842 133.323 176.575 143.471 156.089C153.62 135.627 166.765 113.654 182.909 90.1948C193.741 74.4528 205.117 59.4897 217.059 45.2583C229.001 31.0504 240.306 19.0846 250.974 9.38458C256.52 4.26314 260.957 1.31301 264.332 0.557771C267.707 -0.197464 269.926 0.581373 271.035 2.91788C272.121 5.25439 272.097 8.60575 270.917 12.9956C269.737 17.3854 267.424 22.2708 263.931 27.6754C260.438 33.0801 255.789 38.4611 249.959 43.795C241.699 51.3237 233.556 59.9381 225.485 69.6146C217.437 79.3146 209.767 89.4631 202.474 100.036C188.502 120.357 178.236 138.506 171.722 154.484C165.184 170.462 162.423 183.891 163.438 194.748C164.429 205.604 169.243 213.747 177.858 219.128C186.354 224.461 196.078 225.429 207.029 222.054C217.98 218.679 229.828 210.962 242.596 198.878C255.364 186.818 268.722 170.627 282.718 150.307C290.199 139.427 311.157 147.239 299.946 163.547V163.523Z" fill="#2757E6"/>
<path d="M250.03 120.192C271.696 88.7079 292.63 63.2423 312.88 43.7714C333.13 24.3005 351.751 11.3199 368.814 4.78237C385.854 -1.73153 400.345 -1.25951 412.288 6.22204C421.209 11.8155 426.897 20.2883 429.328 31.6404C431.759 42.9926 431.098 56.7048 427.345 72.8008C423.593 88.8731 416.654 107.14 406.505 127.626C396.357 148.088 383.211 170.061 367.068 193.52C356.235 209.262 344.859 224.225 332.917 238.457C320.975 252.665 309.67 264.631 299.002 274.331C293.456 279.452 289.019 282.402 285.644 283.157C282.269 283.913 280.051 283.134 278.941 280.797C277.856 278.461 277.879 275.109 279.059 270.72C280.239 266.33 282.552 261.444 286.045 256.04C289.538 250.635 294.188 245.254 300.017 239.92C308.278 232.391 316.42 223.777 324.492 214.101C332.54 204.401 340.21 194.252 347.503 183.679C361.474 163.358 371.741 145.209 378.255 129.231C384.792 113.253 387.554 99.824 386.539 88.9675C385.548 78.111 380.733 69.9686 372.119 64.5876C363.622 59.2537 353.898 58.2861 342.948 61.661C331.997 65.036 320.149 72.7536 307.381 84.8373C294.613 96.8975 281.254 113.088 267.259 133.408C259.777 144.288 238.82 136.477 250.03 120.168V120.192Z" fill="#6BBE55"/>
<path d="M28.9349 396.749C22.8931 396.749 17.7244 395.569 13.3818 393.233C9.06282 390.896 5.73507 387.592 3.44576 383.344C1.15645 379.096 0 374.092 0 368.381C0 364.133 0.660831 360.262 1.98249 356.769C3.30415 353.3 5.21584 350.303 7.69396 347.801C10.1957 345.299 13.2402 343.387 16.8276 342.066C20.4149 340.744 24.4507 340.083 28.9349 340.083C31.2951 340.083 33.7732 340.366 36.3221 340.909C38.871 341.452 41.1367 342.278 43.0956 343.364C44.5353 344.143 45.5501 345.134 46.1165 346.314C46.683 347.518 46.8718 348.721 46.7066 349.972C46.5178 351.223 46.0693 352.332 45.3613 353.323C44.6297 354.315 43.7092 354.976 42.5764 355.306C41.4435 355.636 40.2163 355.471 38.871 354.81C37.3133 354.079 35.7793 353.536 34.2688 353.135C32.7583 352.757 31.1535 352.545 29.5014 352.545C26.3152 352.545 23.6247 353.158 21.5006 354.386C19.3529 355.613 17.748 357.383 16.6624 359.719C15.5767 362.056 15.0339 364.935 15.0339 368.357C15.0339 371.78 15.5767 374.682 16.6624 377.043C17.748 379.403 19.3529 381.196 21.5006 382.424C23.6483 383.651 26.3152 384.265 29.5014 384.265C30.8466 384.265 32.2863 384.099 33.844 383.769C35.4016 383.438 36.9121 382.896 38.399 382.164C39.9567 381.48 41.3255 381.314 42.5292 381.621C43.7328 381.928 44.7241 382.565 45.4793 383.486C46.2346 384.43 46.7066 385.492 46.919 386.719C47.1314 387.946 46.9662 389.15 46.4234 390.354C45.8805 391.557 44.9365 392.501 43.5912 393.233C41.7975 394.319 39.5554 395.192 36.9121 395.805C34.2452 396.419 31.6255 396.749 28.9821 396.749H28.9349Z" fill="#2757E6"/>
<path d="M79.0401 396.749C73.5174 396.749 68.6792 395.569 64.5018 393.209C60.3244 390.849 57.091 387.545 54.8017 383.273C52.5124 379.025 51.356 374.045 51.356 368.381C51.356 364.133 52.0168 360.262 53.3384 356.769C54.6601 353.3 56.5246 350.303 58.9791 347.801C61.4336 345.299 64.3602 343.387 67.7587 342.066C71.1573 340.744 74.9335 340.083 79.0401 340.083C84.5627 340.083 89.4009 341.24 93.5311 343.6C97.6849 345.936 100.918 349.217 103.231 353.465C105.544 357.69 106.701 362.669 106.701 368.381C106.701 372.629 106.04 376.5 104.718 379.993C103.396 383.462 101.508 386.483 99.0774 388.985C96.6229 391.51 93.6963 393.422 90.2978 394.743C86.8992 396.065 83.123 396.726 79.0164 396.726L79.0401 396.749ZM79.0401 384.76C81.7778 384.76 84.0907 384.123 86.0024 382.801C87.9141 381.503 89.3773 379.639 90.4158 377.184C91.4542 374.753 91.9735 371.803 91.9735 368.381C91.9735 363.236 90.8406 359.247 88.5749 356.392C86.3092 353.536 83.123 352.096 79.0636 352.096C76.3731 352.096 74.0838 352.733 72.1485 354.008C70.2132 355.282 68.7264 357.123 67.7115 359.531C66.6731 361.938 66.1538 364.888 66.1538 368.381C66.1538 373.526 67.2867 377.538 69.5524 380.418C71.8181 383.297 74.9807 384.737 79.0636 384.737L79.0401 384.76Z" fill="#2757E6"/>
<path d="M121.805 396.584C119.634 396.584 117.982 396.018 116.849 394.861C115.716 393.729 115.15 392.029 115.15 389.787V347.329C115.15 345.039 115.716 343.293 116.849 342.066C117.982 340.838 119.469 340.225 121.333 340.225C122.985 340.225 124.283 340.532 125.204 341.169C126.124 341.806 127.163 342.821 128.295 344.284L152.817 375.131H150.646V346.928C150.646 344.756 151.189 343.081 152.298 341.948C153.407 340.815 155.036 340.225 157.207 340.225C159.378 340.225 161.007 340.791 162.116 341.948C163.225 343.081 163.768 344.756 163.768 346.928V390.094C163.768 392.076 163.249 393.634 162.21 394.814C161.172 395.994 159.779 396.561 158.033 396.561C156.286 396.561 154.894 396.23 153.903 395.593C152.888 394.956 151.826 393.917 150.693 392.525L126.171 361.584H128.343V389.787C128.343 392.029 127.776 393.705 126.691 394.861C125.581 395.994 123.953 396.584 121.782 396.584H121.805Z" fill="#2757E6"/>
<path d="M181.209 395.9C178.778 395.9 176.938 395.263 175.687 393.988C174.412 392.714 173.799 390.896 173.799 388.489V348.367C173.799 345.984 174.436 344.143 175.687 342.868C176.961 341.594 178.802 340.956 181.209 340.956H207.43C209.295 340.956 210.687 341.428 211.608 342.349C212.528 343.293 213 344.638 213 346.408C213 348.178 212.528 349.618 211.608 350.586C210.687 351.553 209.295 352.025 207.43 352.025H187.393V362.457H205.731C207.525 362.457 208.917 362.929 209.861 363.85C210.805 364.794 211.301 366.162 211.301 367.98C211.301 369.797 210.829 371.166 209.861 372.11C208.917 373.054 207.525 373.502 205.731 373.502H187.393V384.807H207.43C209.295 384.807 210.687 385.279 211.608 386.247C212.528 387.215 213 388.583 213 390.33C213 392.076 212.528 393.516 211.608 394.46C210.687 395.404 209.295 395.853 207.43 395.853H181.209V395.9Z" fill="#2757E6"/>
<path d="M248.968 396.749C242.926 396.749 237.757 395.569 233.415 393.233C229.096 390.896 225.768 387.592 223.479 383.344C221.189 379.096 220.033 374.092 220.033 368.381C220.033 364.133 220.694 360.262 222.015 356.769C223.337 353.3 225.249 350.303 227.727 347.801C230.229 345.299 233.273 343.387 236.861 342.066C240.448 340.744 244.484 340.083 248.968 340.083C251.328 340.083 253.806 340.366 256.355 340.909C258.904 341.452 261.17 342.278 263.129 343.364C264.568 344.143 265.583 345.134 266.15 346.314C266.716 347.518 266.905 348.721 266.74 349.972C266.551 351.223 266.102 352.332 265.394 353.323C264.663 354.315 263.742 354.976 262.609 355.306C261.476 355.636 260.249 355.471 258.904 354.81C257.346 354.079 255.812 353.536 254.302 353.135C252.791 352.757 251.186 352.545 249.534 352.545C246.348 352.545 243.658 353.158 241.534 354.386C239.386 355.613 237.781 357.383 236.695 359.719C235.61 362.056 235.067 364.935 235.067 368.357C235.067 371.78 235.61 374.682 236.695 377.043C237.781 379.403 239.386 381.196 241.534 382.424C243.681 383.651 246.348 384.265 249.534 384.265C250.88 384.265 252.319 384.099 253.877 383.769C255.435 383.438 256.945 382.896 258.432 382.164C259.99 381.48 261.358 381.314 262.562 381.621C263.766 381.928 264.757 382.565 265.512 383.486C266.268 384.43 266.74 385.492 266.952 386.719C267.164 387.946 266.999 389.15 266.456 390.354C265.914 391.557 264.969 392.501 263.624 393.233C261.831 394.319 259.588 395.192 256.945 395.805C254.278 396.419 251.658 396.749 249.015 396.749H248.968Z" fill="#2757E6"/>
<path d="M293.834 396.584C291.568 396.584 289.821 395.947 288.571 394.673C287.343 393.398 286.706 391.628 286.706 389.339V352.639H274.575C272.663 352.639 271.2 352.143 270.209 351.129C269.194 350.114 268.698 348.674 268.698 346.81C268.698 344.945 269.194 343.435 270.209 342.443C271.224 341.452 272.663 340.956 274.575 340.956H313.092C315.004 340.956 316.467 341.452 317.458 342.443C318.473 343.435 318.969 344.874 318.969 346.81C318.969 348.745 318.473 350.114 317.458 351.129C316.443 352.143 315.004 352.639 313.092 352.639H300.938V389.339C300.938 391.628 300.348 393.398 299.168 394.673C297.987 395.947 296.194 396.584 293.834 396.584Z" fill="#2757E6"/>
<path d="M320.125 396.584C318.52 396.584 317.175 396.207 316.113 395.451C315.028 394.696 314.367 393.658 314.107 392.336C313.847 391.014 314.083 389.528 314.792 387.852L334.05 346.101C334.97 344.072 336.127 342.585 337.496 341.664C338.865 340.72 340.422 340.272 342.169 340.272C343.915 340.272 345.449 340.744 346.771 341.664C348.093 342.609 349.226 344.072 350.217 346.101L369.475 387.852C370.301 389.504 370.608 391.014 370.372 392.36C370.136 393.705 369.499 394.743 368.437 395.475C367.375 396.207 366.077 396.561 364.519 396.561C362.466 396.561 360.861 396.089 359.752 395.168C358.642 394.224 357.651 392.737 356.778 390.66L352.6 380.771L358.005 384.737H326.144L331.643 380.771L327.465 390.66C326.545 392.737 325.577 394.248 324.61 395.168C323.618 396.112 322.131 396.561 320.125 396.561V396.584ZM342.027 355.92L333.059 377.491L330.887 373.762H353.403L351.232 377.491L342.192 355.92H342.027Z" fill="#2757E6"/>
<path d="M383.235 396.584C381.063 396.584 379.411 396.018 378.278 394.861C377.146 393.729 376.579 392.029 376.579 389.787V347.329C376.579 345.039 377.146 343.293 378.278 342.066C379.411 340.838 380.898 340.225 382.763 340.225C384.415 340.225 385.713 340.532 386.633 341.169C387.554 341.806 388.592 342.821 389.725 344.284L414.246 375.131H412.075V346.928C412.075 344.756 412.618 343.081 413.727 341.948C414.837 340.815 416.465 340.225 418.636 340.225C420.808 340.225 422.436 340.791 423.545 341.948C424.655 343.081 425.197 344.756 425.197 346.928V390.094C425.197 392.076 424.678 393.634 423.64 394.814C422.601 395.994 421.209 396.561 419.462 396.561C417.716 396.561 416.323 396.23 415.332 395.593C414.317 394.956 413.255 393.917 412.122 392.525L387.601 361.584H389.772V389.787C389.772 392.029 389.206 393.705 388.12 394.861C387.011 395.994 385.382 396.584 383.211 396.584H383.235Z" fill="#2757E6"/>
<path d="M442.639 395.9C440.208 395.9 438.367 395.263 437.116 393.988C435.841 392.714 435.228 390.896 435.228 388.489V348.367C435.228 345.984 435.865 344.143 437.116 342.868C438.39 341.594 440.231 340.956 442.639 340.956H457.79C467.278 340.956 474.618 343.34 479.787 348.131C484.979 352.922 487.551 359.672 487.551 368.381C487.551 372.747 486.891 376.618 485.545 380.04C484.2 383.438 482.265 386.318 479.739 388.678C477.214 391.038 474.099 392.832 470.417 394.059C466.735 395.286 462.511 395.9 457.767 395.9H442.615H442.639ZM449.436 384.288H456.87C459.608 384.288 461.968 383.958 463.95 383.273C465.933 382.589 467.585 381.621 468.907 380.323C470.228 379.025 471.196 377.397 471.857 375.414C472.494 373.432 472.824 371.095 472.824 368.405C472.824 363 471.503 359.011 468.883 356.439C466.263 353.866 462.251 352.592 456.894 352.592H449.459V384.312L449.436 384.288Z" fill="#2757E6"/>
<path d="M522.292 396.749C516.77 396.749 511.931 395.569 507.754 393.209C503.577 390.849 500.343 387.545 498.054 383.273C495.765 379.025 494.608 374.045 494.608 368.381C494.608 364.133 495.269 360.262 496.591 356.769C497.912 353.3 499.777 350.303 502.231 347.801C504.686 345.299 507.612 343.387 511.011 342.066C514.409 340.744 518.186 340.083 522.292 340.083C527.815 340.083 532.653 341.24 536.783 343.6C540.937 345.936 544.17 349.217 546.483 353.465C548.796 357.69 549.953 362.669 549.953 368.381C549.953 372.629 549.292 376.5 547.97 379.993C546.649 383.462 544.76 386.483 542.33 388.985C539.875 391.51 536.949 393.422 533.55 394.743C530.151 396.065 526.375 396.726 522.269 396.726L522.292 396.749ZM522.292 384.76C525.03 384.76 527.343 384.123 529.255 382.801C531.166 381.503 532.629 379.639 533.668 377.184C534.706 374.753 535.226 371.803 535.226 368.381C535.226 363.236 534.093 359.247 531.827 356.392C529.561 353.536 526.375 352.096 522.316 352.096C519.625 352.096 517.336 352.733 515.401 354.008C513.465 355.282 511.979 357.123 510.964 359.531C509.925 361.938 509.406 364.888 509.406 368.381C509.406 373.526 510.539 377.538 512.805 380.418C515.07 383.297 518.233 384.737 522.316 384.737L522.292 384.76Z" fill="#2757E6"/>
</g>
<defs>
<clipPath id="clip0_632_2516">
<rect width="550" height="396.498" fill="white" transform="translate(0 0.250763)"/>
</clipPath>
</defs>
</svg>
