<svg width="123" height="108" viewBox="0 0 123 108" fill="none" xmlns="http://www.w3.org/2000/svg">
<g id="Image Icon">
<path d="M61.8721 107.99C43.854 107.99 25.8359 107.99 7.81778 107.99C6.93762 107.99 6.04607 107.99 5.16211 107.9C0.651261 107.48 -1.16218 104.452 0.761281 100.357C2.43056 96.8227 4.25159 93.3786 6.01951 89.8817C14.3659 73.4164 22.7123 56.9536 31.0587 40.4933C31.3167 39.9905 31.5861 39.4877 31.8858 39.0076C33.9875 35.6505 37.402 35.1779 40.0918 38.0738C41.9887 40.1001 43.5935 42.376 45.2855 44.5725C53.8849 55.7703 62.4842 66.9732 71.0835 78.1811C74.8394 83.0579 79.5703 83.3225 83.9825 78.9372C86.1715 76.7596 88.3112 74.5253 90.5268 72.3667C94.5217 68.4727 99.0553 68.7071 102.318 73.2475C108.866 82.3585 115.251 91.5905 121.666 100.792C122.168 101.514 122.552 102.31 122.805 103.151C123.427 105.265 122.547 106.966 120.396 107.529C119.047 107.851 117.662 107.999 116.275 107.971C98.1511 108.002 80.0167 108.008 61.8721 107.99Z" fill="#FBFCFF"/>
<path d="M102.28 17.7688C102.275 21.2832 101.224 24.7171 99.2583 27.6352C97.2928 30.5532 94.5021 32.824 91.2399 34.1597C87.9778 35.4954 84.3911 35.8358 80.9346 35.1377C77.4781 34.4396 74.3074 32.7345 71.8245 30.2386C69.3417 27.7427 67.6584 24.5683 66.9882 21.118C66.318 17.6676 66.691 14.0966 68.0599 10.8578C69.4288 7.6189 71.7319 4.858 74.6774 2.92508C77.6228 0.99217 81.0779 -0.0257081 84.6046 0.000493408C89.3008 0.0599617 93.7854 1.95594 97.0918 5.2797C100.398 8.60346 102.261 13.0888 102.28 17.7688Z" fill="#FBFCFF"/>
</g>
</svg>
