<svg width="800" height="812" viewBox="0 0 800 812" fill="none" xmlns="http://www.w3.org/2000/svg">
<rect width="800" height="812" rx="16" fill="#97989B"/>
<path d="M400.872 459.99C382.854 459.99 364.836 459.99 346.818 459.99C345.938 459.99 345.046 459.99 344.162 459.9C339.651 459.48 337.838 456.452 339.761 452.357C341.431 448.823 343.252 445.379 345.02 441.882C353.366 425.416 361.712 408.954 370.059 392.493C370.317 391.991 370.586 391.488 370.886 391.008C372.988 387.651 376.402 387.178 379.092 390.074C380.989 392.1 382.593 394.376 384.286 396.572C392.885 407.77 401.484 418.973 410.084 430.181C413.839 435.058 418.57 435.323 422.982 430.937C425.172 428.76 427.311 426.525 429.527 424.367C433.522 420.473 438.055 420.707 441.318 425.248C447.866 434.358 454.251 443.59 460.666 452.792C461.168 453.514 461.552 454.31 461.805 455.151C462.427 457.265 461.547 458.966 459.396 459.529C458.047 459.851 456.662 459.999 455.275 459.971C437.151 460.002 419.017 460.008 400.872 459.99Z" fill="#FBFCFF"/>
<path d="M441.28 369.769C441.275 373.283 440.224 376.717 438.258 379.635C436.293 382.553 433.502 384.824 430.24 386.16C426.978 387.495 423.391 387.836 419.935 387.138C416.478 386.44 413.307 384.735 410.825 382.239C408.342 379.743 406.658 376.568 405.988 373.118C405.318 369.668 405.691 366.097 407.06 362.858C408.429 359.619 410.732 356.858 413.677 354.925C416.623 352.992 420.078 351.974 423.605 352C428.301 352.06 432.785 353.956 436.092 357.28C439.398 360.603 441.261 365.089 441.28 369.769Z" fill="#FBFCFF"/>
</svg>
