<svg width="1920" height="1080" viewBox="0 0 1920 1080" fill="none" xmlns="http://www.w3.org/2000/svg">
<rect width="1920" height="1080" rx="16" fill="#97989B"/>
<path d="M959.872 150.99C941.854 150.99 923.836 150.99 905.818 150.99C904.938 150.99 904.046 150.99 903.162 150.9C898.651 150.48 896.838 147.452 898.761 143.357C900.431 139.823 902.252 136.379 904.02 132.882C912.366 116.416 920.712 99.9536 929.059 83.4933C929.317 82.9905 929.586 82.4877 929.886 82.0076C931.988 78.6505 935.402 78.1779 938.092 81.0738C939.989 83.1001 941.593 85.376 943.286 87.5725C951.885 98.7703 960.484 109.973 969.084 121.181C972.839 126.058 977.57 126.323 981.982 121.937C984.172 119.76 986.311 117.525 988.527 115.367C992.522 111.473 997.055 111.707 1000.32 116.248C1006.87 125.358 1013.25 134.59 1019.67 143.792C1020.17 144.514 1020.55 145.31 1020.8 146.151C1021.43 148.265 1020.55 149.966 1018.4 150.529C1017.05 150.851 1015.66 150.999 1014.28 150.971C996.151 151.002 978.017 151.008 959.872 150.99Z" fill="#FBFCFF"/>
<path d="M1000.28 60.7688C1000.28 64.2832 999.224 67.7171 997.258 70.6352C995.293 73.5532 992.502 75.824 989.24 77.1597C985.978 78.4954 982.391 78.8358 978.935 78.1377C975.478 77.4396 972.307 75.7345 969.825 73.2386C967.342 70.7427 965.658 67.5683 964.988 64.118C964.318 60.6676 964.691 57.0966 966.06 53.8578C967.429 50.6189 969.732 47.858 972.677 45.9251C975.623 43.9922 979.078 42.9743 982.605 43.0005C987.301 43.06 991.785 44.9559 995.092 48.2797C998.398 51.6035 1000.26 56.0888 1000.28 60.7688Z" fill="#FBFCFF"/>
</svg>
