<svg width="32" height="32" viewBox="0 0 33 32" fill="none" xmlns="http://www.w3.org/2000/svg">
<g id="Instagram-Icon" clip-path="url(#clip0_98_348)">
<path id="Vector" d="M9.66639 0.112114C7.91079 0.192434 6.7119 0.464114 5.66382 0.863474C4.57911 1.27339 3.65973 1.82347 2.74497 2.71371C1.83021 3.60395 1.2669 4.49611 0.847137 5.54955C0.440907 6.56811 0.165687 7.73163 0.0881368 9.43499C0.0105868 11.1384 -0.00657324 11.6859 0.00200675 16.0308C0.0105868 20.3758 0.0303868 20.9204 0.115527 22.6273C0.199347 24.3294 0.478527 25.4916 0.890367 26.5083C1.31376 27.5601 1.88037 28.4513 2.79876 29.3387C3.71715 30.226 4.63653 30.771 5.72553 31.1787C6.77493 31.572 7.97514 31.8401 9.7314 31.9147C11.4877 31.9892 12.0529 32.0065 16.5324 31.9982C21.0118 31.9899 21.5758 31.9707 23.3356 31.8897C25.0955 31.8088 26.2878 31.5361 27.3366 31.1387C28.4213 30.7272 29.341 30.1787 30.2554 29.2878C31.1698 28.3969 31.7328 27.5041 32.1523 26.45C32.5588 25.4324 32.835 24.2686 32.9113 22.5668C32.9881 20.859 33.0063 20.3137 32.9977 15.9694C32.9891 11.6251 32.969 11.0804 32.8855 9.37419C32.802 7.66795 32.5225 6.50923 32.111 5.49195C31.687 4.44011 31.121 3.54955 30.2029 2.66155C29.2849 1.77355 28.3635 1.22795 27.2768 0.822194C26.2268 0.428274 25.0272 0.159794 23.271 0.0861938C21.5147 0.0125938 20.9494 -0.0062862 16.4683 0.0020338C11.9873 0.0103538 11.4263 0.0289138 9.66639 0.112114ZM9.85911 29.0363C8.25036 28.9684 7.37685 28.7092 6.79473 28.4923C6.02385 28.2043 5.47473 27.8561 4.89459 27.299C4.31445 26.7419 3.95805 26.2075 3.65709 25.4616C3.43104 24.8971 3.15879 24.051 3.08355 22.491C3.00171 20.8049 2.98455 20.2987 2.97498 16.027C2.96541 11.7553 2.98224 11.2497 3.05847 9.56299C3.12711 8.00427 3.39606 7.15627 3.61947 6.59211C3.91647 5.84363 4.27419 5.31211 4.85004 4.74987C5.42589 4.18763 5.97534 3.84139 6.74523 3.54955C7.32669 3.32939 8.19921 3.06763 9.8073 2.99339C11.5474 2.91339 12.0688 2.89739 16.4733 2.88811C20.8778 2.87883 21.4005 2.89483 23.1413 2.96907C24.7487 3.03691 25.6235 3.29515 26.2047 3.51307C26.9759 3.80107 27.5247 4.14699 28.1045 4.70635C28.6843 5.26571 29.0417 5.79659 29.3426 6.54475C29.57 7.10699 29.8399 7.95275 29.9158 9.51307C29.9987 11.2004 30.0175 11.7064 30.0254 15.9771C30.0333 20.2478 30.0178 20.755 29.9416 22.4411C29.8713 24.0011 29.6047 24.8484 29.3806 25.4136C29.0836 26.1608 28.7255 26.6936 28.1494 27.2555C27.5732 27.8174 27.0244 28.1636 26.2542 28.4555C25.6734 28.6753 24.7999 28.9377 23.1931 29.012C21.453 29.0913 20.9316 29.108 16.5254 29.1172C12.1193 29.1265 11.5995 29.1092 9.85944 29.0363M23.3102 7.44875C23.3109 7.82852 23.4277 8.19957 23.6458 8.51497C23.8639 8.83038 24.1736 9.07597 24.5357 9.22068C24.8978 9.3654 25.296 9.40274 25.68 9.32798C26.064 9.25323 26.4164 9.06973 26.6929 8.8007C26.9693 8.53168 27.1572 8.1892 27.2329 7.81659C27.3086 7.44398 27.2686 7.05798 27.1181 6.7074C26.9675 6.35682 26.7131 6.05741 26.387 5.84704C26.061 5.63668 25.6779 5.5248 25.2863 5.52555C24.7613 5.52657 24.2582 5.72975 23.8876 6.0904C23.517 6.45105 23.3094 6.93965 23.3102 7.44875ZM8.02794 16.0161C8.03718 20.5537 11.8375 24.2238 16.5159 24.2152C21.1943 24.2065 24.9817 20.5217 24.9728 15.9841C24.9639 11.4465 21.1626 7.77547 16.4835 7.78443C11.8045 7.79339 8.01903 11.4792 8.02794 16.0161ZM10.9999 16.0104C10.9978 14.9555 11.3182 13.9237 11.9208 13.0455C12.5234 12.1672 13.381 11.482 14.3852 11.0764C15.3893 10.6708 16.495 10.5631 17.5624 10.7668C18.6297 10.9705 19.6107 11.4766 20.3815 12.221C21.1522 12.9654 21.678 13.9148 21.8923 14.9489C22.1066 15.9831 21.9999 17.0557 21.5856 18.0311C21.1713 19.0064 20.4681 19.8407 19.5648 20.4285C18.6615 21.0163 17.5987 21.3311 16.5109 21.3332C15.7886 21.3347 15.0731 21.1982 14.4052 20.9315C13.7373 20.6647 13.1301 20.2731 12.6184 19.7788C12.1066 19.2845 11.7003 18.6973 11.4226 18.0507C11.1449 17.4041 11.0013 16.7108 10.9999 16.0104Z" fill="#FBFCFF"/>
</g>
<defs>
<clipPath id="clip0_98_348">
<rect width="33" height="32" fill="white"/>
</clipPath>
</defs>
</svg>
