<svg width="33" height="32" viewBox="0 0 33 32" fill="none" xmlns="http://www.w3.org/2000/svg">
<path d="M10.9 2.66669H22.1C26.3667 2.66669 29.8333 6.13335 29.8333 10.4V21.6C29.8333 23.651 29.0186 25.618 27.5683 27.0683C26.118 28.5186 24.151 29.3334 22.1 29.3334H10.9C6.63334 29.3334 3.16667 25.8667 3.16667 21.6V10.4C3.16667 8.34901 3.98143 6.38201 5.43171 4.93173C6.88199 3.48145 8.849 2.66669 10.9 2.66669ZM10.6333 5.33335C9.3603 5.33335 8.1394 5.83907 7.23923 6.73924C6.33905 7.63942 5.83334 8.86031 5.83334 10.1334V21.8667C5.83334 24.52 7.98001 26.6667 10.6333 26.6667H22.3667C23.6397 26.6667 24.8606 26.161 25.7608 25.2608C26.661 24.3606 27.1667 23.1397 27.1667 21.8667V10.1334C27.1667 7.48002 25.02 5.33335 22.3667 5.33335H10.6333ZM23.5 7.33335C23.942 7.33335 24.366 7.50895 24.6785 7.82151C24.9911 8.13407 25.1667 8.55799 25.1667 9.00002C25.1667 9.44205 24.9911 9.86597 24.6785 10.1785C24.366 10.4911 23.942 10.6667 23.5 10.6667C23.058 10.6667 22.6341 10.4911 22.3215 10.1785C22.0089 9.86597 21.8333 9.44205 21.8333 9.00002C21.8333 8.55799 22.0089 8.13407 22.3215 7.82151C22.6341 7.50895 23.058 7.33335 23.5 7.33335ZM16.5 9.33335C18.2681 9.33335 19.9638 10.0357 21.2141 11.286C22.4643 12.5362 23.1667 14.2319 23.1667 16C23.1667 17.7681 22.4643 19.4638 21.2141 20.7141C19.9638 21.9643 18.2681 22.6667 16.5 22.6667C14.7319 22.6667 13.0362 21.9643 11.786 20.7141C10.5357 19.4638 9.83334 17.7681 9.83334 16C9.83334 14.2319 10.5357 12.5362 11.786 11.286C13.0362 10.0357 14.7319 9.33335 16.5 9.33335ZM16.5 12C15.4391 12 14.4217 12.4214 13.6716 13.1716C12.9214 13.9217 12.5 14.9392 12.5 16C12.5 17.0609 12.9214 18.0783 13.6716 18.8284C14.4217 19.5786 15.4391 20 16.5 20C17.5609 20 18.5783 19.5786 19.3284 18.8284C20.0786 18.0783 20.5 17.0609 20.5 16C20.5 14.9392 20.0786 13.9217 19.3284 13.1716C18.5783 12.4214 17.5609 12 16.5 12Z" fill="#171717"/>
</svg>
