<svg width="32" height="32" viewBox="0 0 32 32" fill="none" xmlns="http://www.w3.org/2000/svg">
<g clip-path="url(#clip0_98_349)">
<path d="M8.13652 10.2811C9.32094 10.2811 10.2811 9.32094 10.2811 8.13652C10.2811 6.9521 9.32094 5.99194 8.13652 5.99194C6.9521 5.99194 5.99194 6.9521 5.99194 8.13652C5.99194 9.32094 6.9521 10.2811 8.13652 10.2811Z" fill="#FBFCFF"/>
<path d="M5.99194 13.1406C5.99194 12.351 6.63206 11.7108 7.42166 11.7108H8.85138C9.64099 11.7108 10.2811 12.3509 10.2811 13.1406V24.5783C10.2811 25.3679 9.64099 26.008 8.85138 26.008H7.42166C6.63206 26.008 5.99194 25.3679 5.99194 24.5783V13.1406Z" fill="#FBFCFF"/>
<path d="M14.5702 26.008H15.9999C16.7896 26.008 17.4297 25.3679 17.4297 24.5783V18.1446C17.4297 16 21.7188 14.5703 21.7188 17.4297V24.5789C21.7188 25.3685 22.3589 26.008 23.1485 26.008H24.5783C25.3679 26.008 26.008 25.3679 26.008 24.5783V16C26.008 13.1406 23.8634 11.7108 21.004 11.7108C18.1445 11.7108 17.4297 13.8554 17.4297 13.8554V13.1406C17.4297 12.3509 16.7896 11.7108 15.9999 11.7108H14.5702C13.7806 11.7108 13.1405 12.351 13.1405 13.1406V24.5783C13.1405 25.3679 13.7806 26.008 14.5702 26.008Z" fill="#FBFCFF"/>
<path fill-rule="evenodd" clip-rule="evenodd" d="M27.4377 0.273102C29.8066 0.273102 31.7269 2.19343 31.7269 4.56226V27.4378C31.7269 29.8067 29.8066 31.7269 27.4377 31.7269H4.56223C2.1934 31.7269 0.273071 29.8067 0.273071 27.4378V4.56226C0.273071 2.19343 2.1934 0.273102 4.56223 0.273102H27.4377ZM27.4377 3.13254C28.2274 3.13254 28.8674 3.77265 28.8674 4.56226V27.4378C28.8674 28.2274 28.2274 28.8675 27.4377 28.8675H4.56223C3.77262 28.8675 3.13251 28.2274 3.13251 27.4378V4.56226C3.13251 3.77265 3.77262 3.13254 4.56223 3.13254H27.4377Z" fill="#FBFCFF"/>
</g>
<defs>
<clipPath id="clip0_98_349">
<rect width="32" height="32" fill="white"/>
</clipPath>
</defs>
</svg>
