<svg width="33" height="32" viewBox="0 0 33 32" fill="none" xmlns="http://www.w3.org/2000/svg">
<path d="M9.75333 6.66666C9.75298 7.3739 9.47169 8.05204 8.97134 8.55189C8.47099 9.05173 7.79258 9.33235 7.08533 9.33199C6.37809 9.33164 5.69995 9.05035 5.2001 8.55C4.70026 8.04965 4.41964 7.37124 4.42 6.66399C4.42035 5.95675 4.70164 5.27861 5.20199 4.77876C5.70234 4.27892 6.38075 3.9983 7.088 3.99866C7.79524 3.99901 8.47338 4.2803 8.97323 4.78065C9.47307 5.281 9.75369 5.95941 9.75333 6.66666ZM9.83333 11.3067H4.5V28H9.83333V11.3067ZM18.26 11.3067H12.9533V28H18.2067V19.24C18.2067 14.36 24.5667 13.9067 24.5667 19.24V28H29.8333V17.4267C29.8333 9.19999 20.42 9.50666 18.2067 13.5467L18.26 11.3067Z" fill="#171717"/>
</svg>
