<svg width="24" height="24" viewBox="0 0 24 24" fill="none" xmlns="http://www.w3.org/2000/svg">
<mask id="mask0_432_865" style="mask-type:alpha" maskUnits="userSpaceOnUse" x="0" y="0" width="24" height="24">
<rect y="0.5" width="24" height="24" fill="#D9D9D9"/>
</mask>
<g mask="url(#mask0_432_865)">
<path d="M12 19.4684C13.9674 17.6771 15.4309 16.0779 16.3907 14.6706C17.3505 13.2634 17.8304 11.921 17.8304 10.6435C17.8304 8.89304 17.2676 7.45978 16.1419 6.34368C15.0162 5.2276 13.6354 4.66956 11.9995 4.66956C10.3636 4.66956 8.98296 5.2276 7.85761 6.34368C6.73224 7.45978 6.16956 8.89304 6.16956 10.6435C6.16956 11.921 6.64945 13.261 7.60923 14.6636C8.56902 16.0661 10.0326 17.6677 12 19.4684ZM11.9966 22.2207C11.7278 22.2207 11.4599 22.1743 11.1927 22.0815C10.9256 21.9888 10.6871 21.8496 10.4772 21.6641C9.33729 20.6359 8.33185 19.642 7.46083 18.6826C6.58981 17.7232 5.86336 16.7882 5.28148 15.8777C4.6996 14.9672 4.26046 14.0783 3.96408 13.2109C3.66771 12.3435 3.51953 11.4877 3.51953 10.6435C3.51953 8.01421 4.37199 5.91957 6.07691 4.35956C7.78184 2.79954 9.7562 2.01953 12 2.01953C14.2438 2.01953 16.2181 2.79954 17.9231 4.35956C19.628 5.91957 20.4804 8.01421 20.4804 10.6435C20.4804 11.4877 20.3322 12.3435 20.0359 13.2109C19.7395 14.0783 19.3004 14.9672 18.7185 15.8777C18.1366 16.7882 17.4101 17.7232 16.5391 18.6826C15.6681 19.642 14.6627 20.6359 13.5228 21.6641C13.3116 21.8496 13.0717 21.9888 12.8029 22.0815C12.5341 22.1743 12.2654 22.2207 11.9966 22.2207ZM12 12.6413C12.5971 12.6413 13.1032 12.4337 13.5185 12.0185C13.9337 11.6032 14.1413 11.0971 14.1413 10.5C14.1413 9.90288 13.9337 9.39672 13.5185 8.98151C13.1032 8.56629 12.5971 8.35868 12 8.35868C11.4029 8.35868 10.8967 8.56629 10.4815 8.98151C10.0663 9.39672 9.85868 9.90288 9.85868 10.5C9.85868 11.0971 10.0663 11.6032 10.4815 12.0185C10.8967 12.4337 11.4029 12.6413 12 12.6413Z" fill="#97989B"/>
</g>
</svg>
