<svg width="17" height="17" viewBox="0 0 17 17" fill="none" xmlns="http://www.w3.org/2000/svg">
<g id="Location-Icon">
<mask id="mask0_553_264" style="mask-type:alpha" maskUnits="userSpaceOnUse" x="0" y="0" width="17" height="17">
<rect id="Bounding box" x="0.5" y="0.5" width="16" height="16" fill="#D9D9D9"/>
</mask>
<g mask="url(#mask0_553_264)">
<path id="Location" d="M8.50001 13.1457C9.8116 11.9515 10.7873 10.8853 11.4272 9.94713C12.067 9.00896 12.387 8.11403 12.387 7.26235C12.387 6.0954 12.0117 5.13989 11.2613 4.39583C10.5108 3.65177 9.59027 3.27975 8.49967 3.27975C7.40907 3.27975 6.48866 3.65177 5.73842 4.39583C4.98818 5.13989 4.61306 6.0954 4.61306 7.26235C4.61306 8.11403 4.93299 9.00739 5.57284 9.94241C6.2127 10.8774 7.18842 11.9452 8.50001 13.1457ZM8.49776 14.9805C8.31858 14.9805 8.13994 14.9496 7.96184 14.8877C7.78374 14.8259 7.62472 14.7331 7.48479 14.6095C6.72488 13.924 6.05459 13.2614 5.47391 12.6218C4.89323 11.9822 4.40893 11.3589 4.02101 10.7518C3.63309 10.1448 3.34033 9.55221 3.14274 8.97395C2.94516 8.39568 2.84637 7.82515 2.84637 7.26235C2.84637 5.50951 3.41468 4.11309 4.55129 3.07308C5.68791 2.03307 7.00415 1.51306 8.50001 1.51306C9.99586 1.51306 11.3121 2.03307 12.4487 3.07308C13.5853 4.11309 14.1536 5.50951 14.1536 7.26235C14.1536 7.82515 14.0549 8.39568 13.8573 8.97395C13.6597 9.55221 13.3669 10.1448 12.979 10.7518C12.5911 11.3589 12.1068 11.9822 11.5261 12.6218C10.9454 13.2614 10.2751 13.924 9.51522 14.6095C9.37445 14.7331 9.21447 14.8259 9.03529 14.8877C8.85611 14.9496 8.67694 14.9805 8.49776 14.9805ZM8.50001 8.59423C8.89807 8.59423 9.23551 8.45582 9.51232 8.17901C9.78914 7.9022 9.92754 7.56476 9.92754 7.1667C9.92754 6.76863 9.78914 6.43119 9.51232 6.15438C9.23551 5.87757 8.89807 5.73916 8.50001 5.73916C8.10194 5.73916 7.7645 5.87757 7.48769 6.15438C7.21088 6.43119 7.07247 6.76863 7.07247 7.1667C7.07247 7.56476 7.21088 7.9022 7.48769 8.17901C7.7645 8.45582 8.10194 8.59423 8.50001 8.59423Z" fill="#97989B"/>
</g>
</g>
</svg>
