<svg width="24" height="24" viewBox="0 0 24 24" fill="none" xmlns="http://www.w3.org/2000/svg">
<mask id="mask0_583_889" style="mask-type:alpha" maskUnits="userSpaceOnUse" x="0" y="0" width="24" height="24">
<rect width="24" height="24" fill="#D9D9D9"/>
</mask>
<g mask="url(#mask0_583_889)">
<path d="M6.16956 22.4381C5.44079 22.4381 4.81693 22.1786 4.29798 21.6597C3.77901 21.1407 3.51953 20.5168 3.51953 19.7881V10.1272C3.51953 9.39845 3.77901 8.7746 4.29798 8.25563C4.81693 7.73666 5.44079 7.47718 6.16956 7.47718H6.78801V5.88698C6.78801 4.42828 7.29435 3.18788 8.30703 2.16578C9.31972 1.14368 10.5507 0.632629 12 0.632629C13.4493 0.632629 14.6802 1.14368 15.6929 2.16578C16.7056 3.18788 17.212 4.42828 17.212 5.88698V7.47718H17.8304C18.5592 7.47718 19.183 7.73666 19.702 8.25563C20.2209 8.7746 20.4804 9.39845 20.4804 10.1272V19.7881C20.4804 20.5168 20.2209 21.1407 19.702 21.6597C19.183 22.1786 18.5592 22.4381 17.8304 22.4381H6.16956ZM6.16956 19.7881H17.8304V10.1272H6.16956V19.7881ZM12 16.9576C12.55 16.9576 13.0208 16.7618 13.4125 16.3701C13.8041 15.9785 14 15.5076 14 14.9576C14 14.4076 13.8041 13.9368 13.4125 13.5451C13.0208 13.1535 12.55 12.9576 12 12.9576C11.45 12.9576 10.9791 13.1535 10.5875 13.5451C10.1958 13.9368 9.99998 14.4076 9.99998 14.9576C9.99998 15.5076 10.1958 15.9785 10.5875 16.3701C10.9791 16.7618 11.45 16.9576 12 16.9576ZM9.43806 7.47718H14.5619V5.88698C14.5619 5.16356 14.315 4.54865 13.8212 4.04225C13.3273 3.53585 12.7203 3.28265 12 3.28265C11.2797 3.28265 10.6726 3.53585 10.1788 4.04225C9.68497 4.54865 9.43806 5.16356 9.43806 5.88698V7.47718Z" fill="#97989B"/>
</g>
</svg>
