<svg width="24" height="24" viewBox="0 0 24 24" fill="none" xmlns="http://www.w3.org/2000/svg">
<mask id="mask0_583_855" style="mask-type:alpha" maskUnits="userSpaceOnUse" x="0" y="0" width="24" height="24">
<rect width="24" height="24" fill="#D9D9D9"/>
</mask>
<g mask="url(#mask0_583_855)">
<path d="M4.16956 20.4805C3.43114 20.4805 2.80486 20.2234 2.29073 19.7093C1.7766 19.1951 1.51953 18.5689 1.51953 17.8304V6.16959C1.51953 5.43117 1.7766 4.8049 2.29073 4.29076C2.80486 3.77663 3.43114 3.51956 4.16956 3.51956H19.8304C20.5688 3.51956 21.1951 3.77663 21.7092 4.29076C22.2234 4.8049 22.4804 5.43117 22.4804 6.16959V17.8304C22.4804 18.5689 22.2234 19.1951 21.7092 19.7093C21.1951 20.2234 20.5688 20.4805 19.8304 20.4805H4.16956ZM19.8304 8.60766L12.7087 13.1555C12.5988 13.2243 12.4835 13.2759 12.3627 13.3104C12.2419 13.3448 12.121 13.362 12 13.362C11.879 13.362 11.758 13.3448 11.6372 13.3104C11.5164 13.2759 11.4011 13.2243 11.2913 13.1555L4.16956 8.60766V17.8304H19.8304V8.60766ZM12 11.1696L19.8304 6.16959H4.16956L12 11.1696ZM4.16956 7.14759V7.17914V6.16959V7.18156V7.14759Z" fill="#97989B"/>
</g>
</svg>
