<svg width="32" height="32" viewBox="0 0 32 32" fill="none" xmlns="http://www.w3.org/2000/svg">
<mask id="mask0_130_622" style="mask-type:alpha" maskUnits="userSpaceOnUse" x="0" y="0" width="32" height="32">
<rect width="32" height="32" fill="#D9D9D9"/>
</mask>
<g mask="url(#mask0_130_622)">
<path d="M3.99999 25.3333C3.62221 25.3333 3.30555 25.2056 3.04999 24.95C2.79443 24.6944 2.66666 24.3778 2.66666 24C2.66666 23.6222 2.79443 23.3056 3.04999 23.05C3.30555 22.7944 3.62221 22.6667 3.99999 22.6667H14.6667C15.0444 22.6667 15.3611 22.7944 15.6167 23.05C15.8722 23.3056 16 23.6222 16 24C16 24.3778 15.8722 24.6944 15.6167 24.95C15.3611 25.2056 15.0444 25.3333 14.6667 25.3333H3.99999ZM3.99999 18.6667C3.62221 18.6667 3.30555 18.5389 3.04999 18.2833C2.79443 18.0278 2.66666 17.7111 2.66666 17.3333C2.66666 16.9556 2.79443 16.6389 3.04999 16.3833C3.30555 16.1278 3.62221 16 3.99999 16H7.99999C8.37777 16 8.69443 16.1278 8.94999 16.3833C9.20555 16.6389 9.33332 16.9556 9.33332 17.3333C9.33332 17.7111 9.20555 18.0278 8.94999 18.2833C8.69443 18.5389 8.37777 18.6667 7.99999 18.6667H3.99999ZM3.99999 12C3.62221 12 3.30555 11.8722 3.04999 11.6167C2.79443 11.3611 2.66666 11.0444 2.66666 10.6667C2.66666 10.2889 2.79443 9.97222 3.04999 9.71667C3.30555 9.46111 3.62221 9.33333 3.99999 9.33333H7.99999C8.37777 9.33333 8.69443 9.46111 8.94999 9.71667C9.20555 9.97222 9.33332 10.2889 9.33332 10.6667C9.33332 11.0444 9.20555 11.3611 8.94999 11.6167C8.69443 11.8722 8.37777 12 7.99999 12H3.99999ZM18.6667 21.3333C16.8222 21.3333 15.25 20.6833 13.95 19.3833C12.65 18.0833 12 16.5111 12 14.6667C12 12.8222 12.65 11.25 13.95 9.95C15.25 8.65 16.8222 8 18.6667 8C20.5111 8 22.0833 8.65 23.3833 9.95C24.6833 11.25 25.3333 12.8222 25.3333 14.6667C25.3333 15.3111 25.2389 15.95 25.05 16.5833C24.8611 17.2167 24.5778 17.8 24.2 18.3333L28.4 22.5333C28.6444 22.7778 28.7667 23.0889 28.7667 23.4667C28.7667 23.8444 28.6444 24.1556 28.4 24.4C28.1555 24.6444 27.8444 24.7667 27.4667 24.7667C27.0889 24.7667 26.7778 24.6444 26.5333 24.4L22.3333 20.2C21.8 20.5778 21.2167 20.8611 20.5833 21.05C19.95 21.2389 19.3111 21.3333 18.6667 21.3333ZM18.6667 18.6667C19.7778 18.6667 20.7222 18.2778 21.5 17.5C22.2778 16.7222 22.6667 15.7778 22.6667 14.6667C22.6667 13.5556 22.2778 12.6111 21.5 11.8333C20.7222 11.0556 19.7778 10.6667 18.6667 10.6667C17.5555 10.6667 16.6111 11.0556 15.8333 11.8333C15.0555 12.6111 14.6667 13.5556 14.6667 14.6667C14.6667 15.7778 15.0555 16.7222 15.8333 17.5C16.6111 18.2778 17.5555 18.6667 18.6667 18.6667Z" fill="#171717"/>
</g>
</svg>
