<svg width="24" height="24" viewBox="0 0 24 24" fill="none" xmlns="http://www.w3.org/2000/svg">
<mask id="mask0_115_5" style="mask-type:alpha" maskUnits="userSpaceOnUse" x="0" y="0" width="24" height="24">
<rect x="0.5" width="24" height="24" fill="#D9D9D9"/>
</mask>
<g mask="url(#mask0_115_5)">
<path d="M5.50001 19C5.21668 19 4.97918 18.9042 4.78751 18.7125C4.59584 18.5208 4.50001 18.2833 4.50001 18C4.50001 17.7167 4.59584 17.4792 4.78751 17.2875C4.97918 17.0958 5.21668 17 5.50001 17H6.50001V10C6.50001 8.61667 6.91668 7.3875 7.75001 6.3125C8.58334 5.2375 9.66668 4.53333 11 4.2V3.5C11 3.08333 11.1458 2.72917 11.4375 2.4375C11.7292 2.14583 12.0833 2 12.5 2C12.9167 2 13.2708 2.14583 13.5625 2.4375C13.8542 2.72917 14 3.08333 14 3.5V4.2C15.3333 4.53333 16.4167 5.2375 17.25 6.3125C18.0833 7.3875 18.5 8.61667 18.5 10V17H19.5C19.7833 17 20.0208 17.0958 20.2125 17.2875C20.4042 17.4792 20.5 17.7167 20.5 18C20.5 18.2833 20.4042 18.5208 20.2125 18.7125C20.0208 18.9042 19.7833 19 19.5 19H5.50001ZM12.5 22C11.95 22 11.4792 21.8042 11.0875 21.4125C10.6958 21.0208 10.5 20.55 10.5 20H14.5C14.5 20.55 14.3042 21.0208 13.9125 21.4125C13.5208 21.8042 13.05 22 12.5 22ZM8.50001 17H16.5V10C16.5 8.9 16.1083 7.95833 15.325 7.175C14.5417 6.39167 13.6 6 12.5 6C11.4 6 10.4583 6.39167 9.67501 7.175C8.89168 7.95833 8.50001 8.9 8.50001 10V17ZM3.50001 10C3.21668 10 2.97918 9.89167 2.78751 9.675C2.59584 9.45833 2.51668 9.20833 2.55001 8.925C2.68334 7.675 3.03334 6.5125 3.60001 5.4375C4.16668 4.3625 4.89168 3.425 5.77501 2.625C5.99168 2.44167 6.23751 2.35833 6.51251 2.375C6.78751 2.39167 7.00834 2.51667 7.17501 2.75C7.34168 2.98333 7.40834 3.23333 7.37501 3.5C7.34168 3.76667 7.21668 4 7.00001 4.2C6.35001 4.81667 5.81668 5.53333 5.40001 6.35C4.98334 7.16667 4.70834 8.05 4.57501 9C4.54168 9.28333 4.42501 9.52083 4.22501 9.7125C4.02501 9.90417 3.78334 10 3.50001 10ZM21.5 10C21.2167 10 20.975 9.90417 20.775 9.7125C20.575 9.52083 20.4583 9.28333 20.425 9C20.2917 8.05 20.0167 7.16667 19.6 6.35C19.1833 5.53333 18.65 4.81667 18 4.2C17.7833 4 17.6583 3.76667 17.625 3.5C17.5917 3.23333 17.6583 2.98333 17.825 2.75C17.9917 2.51667 18.2125 2.39167 18.4875 2.375C18.7625 2.35833 19.0083 2.44167 19.225 2.625C20.1083 3.425 20.8333 4.3625 21.4 5.4375C21.9667 6.5125 22.3167 7.675 22.45 8.925C22.4833 9.20833 22.4042 9.45833 22.2125 9.675C22.0208 9.89167 21.7833 10 21.5 10Z" fill="#171717"/>
</g>
</svg>
