<svg width="32" height="32" viewBox="0 0 32 32" fill="none" xmlns="http://www.w3.org/2000/svg">
<mask id="mask0_130_628" style="mask-type:alpha" maskUnits="userSpaceOnUse" x="0" y="0" width="32" height="32">
<rect width="32" height="32" fill="#D9D9D9"/>
</mask>
<g mask="url(#mask0_130_628)">
<path d="M10.6667 18.6667H21.3333V17.9334C21.3333 16.9556 20.8444 16.1667 19.8667 15.5667C18.8889 14.9667 17.6 14.6667 16 14.6667C14.4 14.6667 13.1111 14.9667 12.1333 15.5667C11.1555 16.1667 10.6667 16.9556 10.6667 17.9334V18.6667ZM16 13.3334C16.7333 13.3334 17.3611 13.0723 17.8833 12.5501C18.4055 12.0279 18.6667 11.4001 18.6667 10.6667C18.6667 9.93341 18.4055 9.30564 17.8833 8.78341C17.3611 8.26119 16.7333 8.00008 16 8.00008C15.2667 8.00008 14.6389 8.26119 14.1167 8.78341C13.5944 9.30564 13.3333 9.93341 13.3333 10.6667C13.3333 11.4001 13.5944 12.0279 14.1167 12.5501C14.6389 13.0723 15.2667 13.3334 16 13.3334ZM7.99999 24.0001L4.93332 27.0667C4.5111 27.489 4.02777 27.5834 3.48332 27.3501C2.93888 27.1168 2.66666 26.7001 2.66666 26.1001V5.33341C2.66666 4.60008 2.92777 3.9723 3.44999 3.45008C3.97221 2.92786 4.59999 2.66675 5.33332 2.66675H26.6667C27.4 2.66675 28.0278 2.92786 28.55 3.45008C29.0722 3.9723 29.3333 4.60008 29.3333 5.33341V21.3334C29.3333 22.0667 29.0722 22.6945 28.55 23.2167C28.0278 23.739 27.4 24.0001 26.6667 24.0001H7.99999ZM6.86666 21.3334H26.6667V5.33341H5.33332V22.8334L6.86666 21.3334Z" fill="#171717"/>
</g>
</svg>
