<svg width="32" height="33" viewBox="0 0 32 33" fill="none" xmlns="http://www.w3.org/2000/svg">
<mask id="mask0_130_577" style="mask-type:alpha" maskUnits="userSpaceOnUse" x="0" y="0" width="32" height="33">
<rect y="0.5" width="32" height="32" fill="#D9D9D9"/>
</mask>
<g mask="url(#mask0_130_577)">
<path d="M16 22.4666C18.2 20.6888 19.8611 18.9777 20.9833 17.3333C22.1055 15.6888 22.6667 14.1444 22.6667 12.7C22.6667 11.4555 22.4389 10.3944 21.9833 9.51663C21.5278 8.63885 20.9667 7.92774 20.3 7.38329C19.6333 6.83885 18.9111 6.4444 18.1333 6.19996C17.3555 5.95552 16.6444 5.83329 16 5.83329C15.3555 5.83329 14.6444 5.95552 13.8667 6.19996C13.0889 6.4444 12.3667 6.83885 11.7 7.38329C11.0333 7.92774 10.4722 8.63885 10.0167 9.51663C9.5611 10.3944 9.33332 11.4555 9.33332 12.7C9.33332 14.1444 9.89443 15.6888 11.0167 17.3333C12.1389 18.9777 13.8 20.6888 16 22.4666ZM16 25.3C15.7778 25.3 15.5611 25.2666 15.35 25.2C15.1389 25.1333 14.9444 25.0333 14.7667 24.9C12.9667 23.5 11.1667 21.7388 9.36666 19.6166C7.56666 17.4944 6.66666 15.1888 6.66666 12.7C6.66666 11.1222 6.94999 9.73885 7.51666 8.54996C8.08332 7.36107 8.8111 6.36663 9.69999 5.56663C10.5889 4.76663 11.5889 4.16663 12.7 3.76663C13.8111 3.36663 14.9111 3.16663 16 3.16663C17.0889 3.16663 18.1889 3.36663 19.3 3.76663C20.4111 4.16663 21.4111 4.76663 22.3 5.56663C23.1889 6.36663 23.9167 7.36107 24.4833 8.54996C25.05 9.73885 25.3333 11.1222 25.3333 12.7C25.3333 15.1888 24.4333 17.4944 22.6333 19.6166C20.8333 21.7388 19.0333 23.5 17.2333 24.9C17.0555 25.0333 16.8611 25.1333 16.65 25.2C16.4389 25.2666 16.2222 25.3 16 25.3ZM16 15.1666C16.7333 15.1666 17.3611 14.9055 17.8833 14.3833C18.4055 13.8611 18.6667 13.2333 18.6667 12.5C18.6667 11.7666 18.4055 11.1388 17.8833 10.6166C17.3611 10.0944 16.7333 9.83329 16 9.83329C15.2667 9.83329 14.6389 10.0944 14.1167 10.6166C13.5944 11.1388 13.3333 11.7666 13.3333 12.5C13.3333 13.2333 13.5944 13.8611 14.1167 14.3833C14.6389 14.9055 15.2667 15.1666 16 15.1666ZM7.99999 29.8333C7.62221 29.8333 7.30555 29.7055 7.04999 29.45C6.79443 29.1944 6.66666 28.8777 6.66666 28.5C6.66666 28.1222 6.79443 27.8055 7.04999 27.55C7.30555 27.2944 7.62221 27.1666 7.99999 27.1666H24C24.3778 27.1666 24.6944 27.2944 24.95 27.55C25.2055 27.8055 25.3333 28.1222 25.3333 28.5C25.3333 28.8777 25.2055 29.1944 24.95 29.45C24.6944 29.7055 24.3778 29.8333 24 29.8333H7.99999Z" fill="#171717"/>
</g>
</svg>
