<svg width="32" height="33" viewBox="0 0 32 33" fill="none" xmlns="http://www.w3.org/2000/svg">
<mask id="mask0_130_580" style="mask-type:alpha" maskUnits="userSpaceOnUse" x="0" y="0" width="32" height="33">
<rect y="0.5" width="32" height="32" fill="#D9D9D9"/>
</mask>
<g mask="url(#mask0_130_580)">
<path d="M16 17.1333L18.5333 18.6666C18.7778 18.8222 19.0222 18.8166 19.2667 18.65C19.5111 18.4833 19.6 18.2555 19.5333 17.9666L18.8667 15.0666L21.1333 13.1C21.3555 12.9 21.4222 12.6611 21.3333 12.3833C21.2444 12.1055 21.0444 11.9555 20.7333 11.9333L17.7667 11.7L16.6 8.96663C16.4889 8.69996 16.2889 8.56663 16 8.56663C15.7111 8.56663 15.5111 8.69996 15.4 8.96663L14.2333 11.7L11.2667 11.9333C10.9555 11.9555 10.7555 12.1055 10.6667 12.3833C10.5778 12.6611 10.6444 12.9 10.8667 13.1L13.1333 15.0666L12.4667 17.9666C12.4 18.2555 12.4889 18.4833 12.7333 18.65C12.9778 18.8166 13.2222 18.8222 13.4667 18.6666L16 17.1333ZM7.99999 24.5L4.93332 27.5666C4.5111 27.9888 4.02777 28.0833 3.48332 27.85C2.93888 27.6166 2.66666 27.2 2.66666 26.6V5.83329C2.66666 5.09996 2.92777 4.47218 3.44999 3.94996C3.97221 3.42774 4.59999 3.16663 5.33332 3.16663H26.6667C27.4 3.16663 28.0278 3.42774 28.55 3.94996C29.0722 4.47218 29.3333 5.09996 29.3333 5.83329V21.8333C29.3333 22.5666 29.0722 23.1944 28.55 23.7166C28.0278 24.2388 27.4 24.5 26.6667 24.5H7.99999ZM6.86666 21.8333H26.6667V5.83329H5.33332V23.3333L6.86666 21.8333Z" fill="#171717"/>
</g>
</svg>
