<svg width="20" height="20" viewBox="0 0 20 20" fill="none" xmlns="http://www.w3.org/2000/svg">
<mask id="mask0_1462_1472" style="mask-type:alpha" maskUnits="userSpaceOnUse" x="0" y="0" width="20" height="20">
<rect width="20" height="20" fill="#D9D9D9"/>
</mask>
<g mask="url(#mask0_1462_1472)">
<path d="M9.99997 14.3958L6.54164 16.4792C6.38886 16.5764 6.22914 16.6181 6.06247 16.6042C5.8958 16.5903 5.74997 16.5347 5.62497 16.4375C5.49997 16.3403 5.40275 16.2188 5.33331 16.0729C5.26386 15.9271 5.24997 15.7639 5.29164 15.5833L6.2083 11.6458L3.14581 9C3.00692 8.875 2.92011 8.73264 2.88539 8.57292C2.85067 8.4132 2.86108 8.25695 2.91664 8.10417C2.97219 7.95139 3.05553 7.82639 3.16664 7.72917C3.27775 7.63195 3.43053 7.56945 3.62497 7.54167L7.66664 7.1875L9.22914 3.47917C9.29858 3.31251 9.40622 3.18751 9.55206 3.10417C9.69789 3.02084 9.84719 2.97917 9.99997 2.97917C10.1527 2.97917 10.3021 3.02084 10.4479 3.10417C10.5937 3.18751 10.7014 3.31251 10.7708 3.47917L12.3333 7.1875L16.375 7.54167C16.5694 7.56945 16.7222 7.63195 16.8333 7.72917C16.9444 7.82639 17.0277 7.95139 17.0833 8.10417C17.1389 8.25695 17.1493 8.4132 17.1146 8.57292C17.0798 8.73264 16.993 8.875 16.8541 9L13.7916 11.6458L14.7083 15.5833C14.75 15.7639 14.7361 15.9271 14.6666 16.0729C14.5972 16.2188 14.5 16.3403 14.375 16.4375C14.25 16.5347 14.1041 16.5903 13.9375 16.6042C13.7708 16.6181 13.6111 16.5764 13.4583 16.4792L9.99997 14.3958Z" fill="#171717"/>
</g>
</svg>
