<svg width="32" height="33" viewBox="0 0 32 33" fill="none" xmlns="http://www.w3.org/2000/svg">
<mask id="mask0_583_892" style="mask-type:alpha" maskUnits="userSpaceOnUse" x="0" y="0" width="32" height="33">
<rect y="0.5" width="32" height="32" fill="#D9D9D9"/>
</mask>
<g mask="url(#mask0_583_892)">
<path d="M9.33333 25.0841C6.94887 25.0841 4.92207 24.2494 3.25293 22.5801C1.58382 20.9107 0.749268 18.8837 0.749268 16.4989C0.749268 14.1141 1.58382 12.0874 3.25293 10.4188C4.92209 8.75021 6.94889 7.91589 9.33333 7.91589H22.6667C25.0511 7.91589 27.0779 8.75057 28.7471 10.4199C30.4162 12.0893 31.2508 14.1163 31.2508 16.5011C31.2508 18.8859 30.4162 20.9126 28.7471 22.5812C27.0779 24.2498 25.0511 25.0841 22.6667 25.0841H9.33333ZM9.33333 21.8333H22.6667C24.1333 21.8333 25.3889 21.3111 26.4333 20.2667C27.4778 19.2222 28 17.9667 28 16.5C28 15.0333 27.4778 13.7778 26.4333 12.7333C25.3889 11.6889 24.1333 11.1667 22.6667 11.1667H9.33333C7.86667 11.1667 6.61111 11.6889 5.56667 12.7333C4.52222 13.7778 4 15.0333 4 16.5C4 17.9667 4.52222 19.2222 5.56667 20.2667C6.61111 21.3111 7.86667 21.8333 9.33333 21.8333ZM9.33333 20.5C10.4444 20.5 11.3889 20.1111 12.1667 19.3333C12.9444 18.5555 13.3333 17.6111 13.3333 16.5C13.3333 15.3889 12.9444 14.4444 12.1667 13.6667C11.3889 12.8889 10.4444 12.5 9.33333 12.5C8.22222 12.5 7.27778 12.8889 6.5 13.6667C5.72222 14.4444 5.33333 15.3889 5.33333 16.5C5.33333 17.6111 5.72222 18.5555 6.5 19.3333C7.27778 20.1111 8.22222 20.5 9.33333 20.5Z" fill="#171717"/>
</g>
</svg>
