<svg width="24" height="24" viewBox="0 0 24 24" fill="none" xmlns="http://www.w3.org/2000/svg">
<mask id="mask0_115_37" style="mask-type:alpha" maskUnits="userSpaceOnUse" x="0" y="0" width="24" height="24">
<rect x="0.451416" width="24" height="24" fill="#D9D9D9"/>
</mask>
<g mask="url(#mask0_115_37)">
<path d="M4.45142 21C3.90142 21 3.43058 20.8042 3.03892 20.4125C2.64725 20.0208 2.45142 19.55 2.45142 19V8C2.45142 7.45 2.64725 6.97917 3.03892 6.5875C3.43058 6.19583 3.90142 6 4.45142 6H8.45142V4C8.45142 3.45 8.64725 2.97917 9.03892 2.5875C9.43058 2.19583 9.90142 2 10.4514 2H14.4514C15.0014 2 15.4722 2.19583 15.8639 2.5875C16.2556 2.97917 16.4514 3.45 16.4514 4V6H20.4514C21.0014 6 21.4722 6.19583 21.8639 6.5875C22.2556 6.97917 22.4514 7.45 22.4514 8V19C22.4514 19.55 22.2556 20.0208 21.8639 20.4125C21.4722 20.8042 21.0014 21 20.4514 21H4.45142ZM10.4514 6H14.4514V4H10.4514V6ZM20.4514 15H15.4514V16C15.4514 16.2833 15.3556 16.5208 15.1639 16.7125C14.9722 16.9042 14.7347 17 14.4514 17H10.4514C10.1681 17 9.93058 16.9042 9.73892 16.7125C9.54725 16.5208 9.45142 16.2833 9.45142 16V15H4.45142V19H20.4514V15ZM11.4514 15H13.4514V13H11.4514V15ZM4.45142 13H9.45142V12C9.45142 11.7167 9.54725 11.4792 9.73892 11.2875C9.93058 11.0958 10.1681 11 10.4514 11H14.4514C14.7347 11 14.9722 11.0958 15.1639 11.2875C15.3556 11.4792 15.4514 11.7167 15.4514 12V13H20.4514V8H4.45142V13Z" fill="#171717"/>
</g>
</svg>
