<svg width="24" height="24" viewBox="0 0 24 24" fill="none" xmlns="http://www.w3.org/2000/svg">
<mask id="mask0_583_898" style="mask-type:alpha" maskUnits="userSpaceOnUse" x="0" y="0" width="24" height="24">
<rect width="24" height="24" fill="#D9D9D9"/>
</mask>
<g mask="url(#mask0_583_898)">
<path d="M16.1848 13.0597L14.1271 11.0021C14.2351 10.4862 14.1025 10.0476 13.7293 9.68639C13.3561 9.32518 12.908 9.18297 12.3848 9.25977L10.4402 7.31519C10.6953 7.21011 10.9516 7.1313 11.2092 7.07877C11.4668 7.02624 11.7304 6.99997 12 6.99997C13.25 6.99997 14.3125 7.43747 15.1875 8.31247C16.0625 9.18747 16.5 10.25 16.5 11.5C16.5 11.7695 16.4761 12.0355 16.4282 12.2978C16.3804 12.5601 16.2993 12.8141 16.1848 13.0597ZM19.7522 16.6054L18.0196 14.8945C18.5964 14.4206 19.1159 13.8996 19.5782 13.3315C20.0406 12.7634 20.4384 12.1529 20.7717 11.5C19.9195 9.82605 18.713 8.49091 17.1522 7.49454C15.5913 6.49816 13.8739 5.99997 12 5.99997C11.5637 5.99997 11.1353 6.02624 10.7147 6.07877C10.294 6.1313 9.8739 6.21482 9.45433 6.32932L7.53693 4.41189C8.25578 4.11914 8.98712 3.90429 9.73095 3.76734C10.4748 3.63038 11.2311 3.56189 12 3.56189C14.3493 3.56189 16.5027 4.18309 18.4603 5.42549C20.4179 6.66789 21.9109 8.34815 22.9391 10.4663C23.0152 10.6279 23.0746 10.796 23.1174 10.9706C23.1601 11.1453 23.1815 11.3217 23.1815 11.5C23.1815 11.6782 23.1667 11.857 23.137 12.0364C23.1072 12.2157 23.0543 12.3862 22.9783 12.5478C22.6022 13.3362 22.1402 14.0715 21.5924 14.7538C21.0446 15.436 20.4312 16.0532 19.7522 16.6054ZM12 19.438C9.71013 19.438 7.60958 18.8245 5.69833 17.5973C3.7871 16.3701 2.28873 14.7402 1.20323 12.7076C1.10106 12.5177 1.02443 12.3224 0.973328 12.1217C0.922262 11.921 0.896729 11.7137 0.896729 11.5C0.896729 11.2862 0.918104 11.0784 0.960854 10.8766C1.0036 10.6748 1.07606 10.4753 1.17823 10.2782C1.49273 9.63982 1.86139 9.03529 2.2842 8.46464C2.70702 7.89399 3.17821 7.36338 3.69778 6.8728L1.7641 4.92822C1.5525 4.70939 1.44851 4.45069 1.45213 4.15214C1.45576 3.85359 1.56337 3.59852 1.77495 3.38692C1.98655 3.17532 2.2458 3.06952 2.55268 3.06952C2.85956 3.06952 3.1188 3.17532 3.3304 3.38692L20.4011 20.4576C20.6127 20.6692 20.7203 20.9242 20.7239 21.2228C20.7275 21.5213 20.6199 21.78 20.4011 21.9989C20.1895 22.2105 19.9326 22.3163 19.6304 22.3163C19.3282 22.3163 19.0714 22.2105 18.8598 21.9989L15.6848 18.8598C15.092 19.062 14.4862 19.2089 13.8674 19.3005C13.2485 19.3922 12.6261 19.438 12 19.438ZM5.4228 8.55542C4.97715 8.98875 4.57317 9.44962 4.21085 9.93802C3.84854 10.4264 3.52571 10.9471 3.24238 11.5C4.07571 13.1833 5.27516 14.5208 6.84073 15.5125C8.40631 16.5041 10.1261 17 12 17C12.2862 17 12.5688 16.9838 12.8478 16.9516C13.1268 16.9193 13.4094 16.8829 13.6956 16.8424L12.7956 15.8924C12.6594 15.9329 12.5268 15.961 12.3978 15.9766C12.2688 15.9922 12.1362 16 12 16C10.75 16 9.68748 15.5625 8.81248 14.6875C7.93748 13.8125 7.49998 12.75 7.49998 11.5C7.49998 11.3637 7.50541 11.2311 7.51628 11.1021C7.52715 10.9732 7.54816 10.8406 7.57933 10.7043L5.4228 8.55542Z" fill="#97989B"/>
</g>
</svg>
