<svg width="24" height="24" viewBox="0 0 24 24" fill="none" xmlns="http://www.w3.org/2000/svg">
<mask id="mask0_421_494" style="mask-type:alpha" maskUnits="userSpaceOnUse" x="0" y="0" width="24" height="24">
<rect width="24" height="24" fill="#D9D9D9"/>
</mask>
<g mask="url(#mask0_421_494)">
<path d="M16.1848 13.0598L14.1271 11.0022C14.2351 10.4862 14.1025 10.0477 13.7293 9.68645C13.3561 9.32524 12.908 9.18303 12.3848 9.25983L10.4402 7.31526C10.6953 7.21017 10.9516 7.13136 11.2092 7.07883C11.4668 7.0263 11.7304 7.00003 12 7.00003C13.25 7.00003 14.3125 7.43753 15.1875 8.31253C16.0625 9.18753 16.5 10.25 16.5 11.5C16.5 11.7696 16.4761 12.0355 16.4282 12.2979C16.3804 12.5602 16.2993 12.8142 16.1848 13.0598ZM19.7522 16.6055L18.0196 14.8946C18.5964 14.4207 19.1159 13.8997 19.5782 13.3316C20.0406 12.7634 20.4384 12.1529 20.7717 11.5C19.9195 9.82611 18.713 8.49097 17.1522 7.49461C15.5913 6.49822 13.8739 6.00003 12 6.00003C11.5637 6.00003 11.1353 6.0263 10.7147 6.07883C10.294 6.13136 9.8739 6.21488 9.45433 6.32938L7.53693 4.41196C8.25578 4.11921 8.98712 3.90436 9.73095 3.76741C10.4748 3.63044 11.2311 3.56196 12 3.56196C14.3493 3.56196 16.5027 4.18316 18.4603 5.42556C20.4179 6.66796 21.9109 8.34821 22.9391 10.4663C23.0152 10.6279 23.0746 10.796 23.1174 10.9707C23.1601 11.1453 23.1815 11.3218 23.1815 11.5C23.1815 11.6783 23.1667 11.8571 23.137 12.0365C23.1072 12.2158 23.0543 12.3863 22.9783 12.5479C22.6022 13.3363 22.1402 14.0716 21.5924 14.7538C21.0446 15.4361 20.4312 16.0533 19.7522 16.6055ZM12 19.4381C9.71013 19.4381 7.60958 18.8245 5.69833 17.5973C3.7871 16.3702 2.28873 14.7403 1.20323 12.7077C1.10106 12.5178 1.02443 12.3225 0.973328 12.1218C0.922262 11.921 0.896729 11.7138 0.896729 11.5C0.896729 11.2863 0.918104 11.0785 0.960854 10.8767C1.0036 10.6748 1.07606 10.4754 1.17823 10.2783C1.49273 9.63988 1.86139 9.03536 2.2842 8.4647C2.70702 7.89405 3.17821 7.36344 3.69778 6.87286L1.7641 4.92828C1.5525 4.70945 1.44851 4.45075 1.45213 4.1522C1.45576 3.85365 1.56337 3.59858 1.77495 3.38698C1.98655 3.17538 2.2458 3.06958 2.55268 3.06958C2.85956 3.06958 3.1188 3.17538 3.3304 3.38698L20.4011 20.4576C20.6127 20.6692 20.7203 20.9243 20.7239 21.2229C20.7275 21.5214 20.6199 21.7801 20.4011 21.999C20.1895 22.2106 19.9326 22.3164 19.6304 22.3164C19.3282 22.3164 19.0714 22.2106 18.8598 21.999L15.6848 18.8598C15.092 19.062 14.4862 19.2089 13.8674 19.3006C13.2485 19.3923 12.6261 19.4381 12 19.4381ZM5.4228 8.55548C4.97715 8.98881 4.57317 9.44968 4.21085 9.93808C3.84854 10.4265 3.52571 10.9471 3.24238 11.5C4.07571 13.1834 5.27516 14.5209 6.84073 15.5125C8.40631 16.5042 10.1261 17 12 17C12.2862 17 12.5688 16.9839 12.8478 16.9517C13.1268 16.9194 13.4094 16.883 13.6956 16.8424L12.7956 15.8924C12.6594 15.933 12.5268 15.9611 12.3978 15.9767C12.2688 15.9922 12.1362 16 12 16C10.75 16 9.68748 15.5625 8.81248 14.6875C7.93748 13.8125 7.49998 12.75 7.49998 11.5C7.49998 11.3638 7.50541 11.2312 7.51628 11.1022C7.52715 10.9732 7.54816 10.8406 7.57933 10.7044L5.4228 8.55548Z" fill="#171717"/>
</g>
</svg>
