<svg width="24" height="24" viewBox="0 0 24 24" fill="none" xmlns="http://www.w3.org/2000/svg">
<mask id="mask0_421_493" style="mask-type:alpha" maskUnits="userSpaceOnUse" x="0" y="0" width="24" height="24">
<rect width="24" height="24" fill="#D9D9D9"/>
</mask>
<g mask="url(#mask0_421_493)">
<path d="M12 16C13.25 16 14.3125 15.5625 15.1875 14.6875C16.0625 13.8125 16.5 12.75 16.5 11.5C16.5 10.25 16.0625 9.18747 15.1875 8.31247C14.3125 7.43747 13.25 6.99996 12 6.99996C10.75 6.99996 9.68753 7.43747 8.81253 8.31247C7.93753 9.18747 7.50003 10.25 7.50003 11.5C7.50003 12.75 7.93753 13.8125 8.81253 14.6875C9.68753 15.5625 10.75 16 12 16ZM12.0025 13.9032C11.3356 13.9032 10.768 13.6698 10.2995 13.203C9.83102 12.7362 9.59678 12.1693 9.59678 11.5025C9.59678 10.8356 9.83019 10.2679 10.297 9.79944C10.7638 9.33096 11.3307 9.09671 11.9975 9.09671C12.6644 9.09671 13.2321 9.33012 13.7006 9.79694C14.169 10.2638 14.4033 10.8306 14.4033 11.4975C14.4033 12.1643 14.1699 12.732 13.7031 13.2005C13.2362 13.669 12.6694 13.9032 12.0025 13.9032ZM12 19.438C9.71018 19.438 7.61615 18.8286 5.71795 17.6098C3.81977 16.3909 2.32792 14.7699 1.2424 12.7467C1.1308 12.5496 1.04947 12.346 0.998403 12.1358C0.947303 11.9257 0.921753 11.7137 0.921753 11.5C0.921753 11.2862 0.947295 11.0742 0.998378 10.8641C1.04948 10.6539 1.13082 10.4503 1.2424 10.2532C2.32792 8.23002 3.81977 6.609 5.71795 5.39016C7.61615 4.17131 9.71018 3.56189 12 3.56189C14.2899 3.56189 16.3839 4.17131 18.2821 5.39016C20.1803 6.609 21.6721 8.23002 22.7577 10.2532C22.8693 10.4503 22.9506 10.6539 23.0017 10.8641C23.0528 11.0742 23.0783 11.2862 23.0783 11.5C23.0783 11.7137 23.0528 11.9257 23.0017 12.1358C22.9506 12.346 22.8693 12.5496 22.7577 12.7467C21.6721 14.7699 20.1803 16.3909 18.2821 17.6098C16.3839 18.8286 14.2899 19.438 12 19.438ZM12.0013 17C13.8744 17 15.5937 16.5018 17.1593 15.5054C18.7248 14.509 19.9243 13.1739 20.7576 11.5C19.9243 9.82605 18.7244 8.49091 17.158 7.49454C15.5916 6.49816 13.8718 5.99996 11.9988 5.99996C10.1257 5.99996 8.40636 6.49816 6.84078 7.49454C5.27521 8.49091 4.07576 9.82605 3.24243 11.5C4.07576 13.1739 5.27564 14.509 6.84205 15.5054C8.40847 16.5018 10.1282 17 12.0013 17Z" fill="#171717"/>
</g>
</svg>
