<svg width="20" height="20" viewBox="0 0 20 20" fill="none" xmlns="http://www.w3.org/2000/svg">
<mask id="mask0_416_3276" style="mask-type:alpha" maskUnits="userSpaceOnUse" x="0" y="0" width="20" height="20">
<rect width="20" height="20" fill="#D9D9D9"/>
</mask>
<g mask="url(#mask0_416_3276)">
<path d="M15 16.1875V17.2083C15 17.4444 14.9202 17.6424 14.7604 17.8021C14.6007 17.9618 14.4028 18.0417 14.1667 18.0417C13.9306 18.0417 13.7327 17.9618 13.5729 17.8021C13.4132 17.6424 13.3334 17.4444 13.3334 17.2083V14.5833C13.3334 14.2361 13.4549 13.941 13.6979 13.6979C13.941 13.4549 14.2361 13.3333 14.5834 13.3333H17.2084C17.4445 13.3333 17.6424 13.4132 17.8021 13.5729C17.9618 13.7326 18.0417 13.9305 18.0417 14.1667C18.0417 14.4028 17.9618 14.6007 17.8021 14.7604C17.6424 14.9201 17.4445 15 17.2084 15H16.1667L18.0417 16.875C18.1945 17.0278 18.2709 17.2187 18.2709 17.4479C18.2709 17.6771 18.1945 17.875 18.0417 18.0417C17.875 18.2083 17.6771 18.2917 17.4479 18.2917C17.2188 18.2917 17.0209 18.2083 16.8542 18.0417L15 16.1875ZM10 18.3333C8.84724 18.3333 7.76391 18.1146 6.75002 17.6771C5.73613 17.2396 4.85419 16.6458 4.10419 15.8958C3.35419 15.1458 2.76044 14.2639 2.32294 13.25C1.88544 12.2361 1.66669 11.1528 1.66669 9.99999C1.66669 8.84721 1.88544 7.76388 2.32294 6.74999C2.76044 5.7361 3.35419 4.85416 4.10419 4.10416C4.85419 3.35416 5.73613 2.76041 6.75002 2.32291C7.76391 1.88541 8.84724 1.66666 10 1.66666C11.1528 1.66666 12.2361 1.88541 13.25 2.32291C14.2639 2.76041 15.1459 3.35416 15.8959 4.10416C16.6459 4.85416 17.2396 5.7361 17.6771 6.74999C18.1146 7.76388 18.3334 8.84721 18.3334 9.99999C18.3334 10.1389 18.3299 10.2917 18.3229 10.4583C18.316 10.625 18.3056 10.7778 18.2917 10.9167C18.2639 11.1528 18.1667 11.3368 18 11.4687C17.8334 11.6007 17.625 11.6667 17.375 11.6667C17.1528 11.6667 16.9653 11.5694 16.8125 11.375C16.6597 11.1805 16.5972 10.9722 16.625 10.75C16.6528 10.6111 16.6667 10.4861 16.6667 10.375V9.99999C16.6667 9.72221 16.6493 9.44443 16.6146 9.16666C16.5799 8.88888 16.5278 8.6111 16.4584 8.33332H13.625C13.6667 8.6111 13.6979 8.88888 13.7188 9.16666C13.7396 9.44443 13.75 9.72221 13.75 9.99999V10.4479C13.75 10.6076 13.7431 10.7569 13.7292 10.8958C13.7014 11.1319 13.6042 11.3194 13.4375 11.4583C13.2709 11.5972 13.0695 11.6667 12.8334 11.6667C12.6111 11.6667 12.4202 11.5764 12.2604 11.3958C12.1007 11.2153 12.0347 11.0139 12.0625 10.7917C12.0764 10.6528 12.0834 10.5208 12.0834 10.3958V9.99999C12.0834 9.72221 12.0729 9.44443 12.0521 9.16666C12.0313 8.88888 12 8.6111 11.9584 8.33332H8.04169C8.00002 8.6111 7.96877 8.88888 7.94794 9.16666C7.9271 9.44443 7.91669 9.72221 7.91669 9.99999C7.91669 10.2778 7.9271 10.5555 7.94794 10.8333C7.96877 11.1111 8.00002 11.3889 8.04169 11.6667H10C10.2361 11.6667 10.434 11.7465 10.5938 11.9062C10.7535 12.066 10.8334 12.2639 10.8334 12.5C10.8334 12.7361 10.7535 12.934 10.5938 13.0937C10.434 13.2535 10.2361 13.3333 10 13.3333H8.41669C8.58335 13.9305 8.79863 14.5035 9.06252 15.0521C9.32641 15.6007 9.63891 16.125 10 16.625C10.1389 16.625 10.2778 16.6285 10.4167 16.6354C10.5556 16.6424 10.6945 16.6389 10.8334 16.625C11.0695 16.5972 11.2639 16.6562 11.4167 16.8021C11.5695 16.9479 11.6459 17.1389 11.6459 17.375C11.6459 17.625 11.5834 17.8333 11.4584 18C11.3334 18.1667 11.1528 18.2639 10.9167 18.2917C10.7778 18.3055 10.625 18.316 10.4584 18.3229C10.2917 18.3299 10.1389 18.3333 10 18.3333ZM3.54169 11.6667H6.37502C6.33335 11.3889 6.3021 11.1111 6.28127 10.8333C6.26044 10.5555 6.25002 10.2778 6.25002 9.99999C6.25002 9.72221 6.26044 9.44443 6.28127 9.16666C6.3021 8.88888 6.33335 8.6111 6.37502 8.33332H3.54169C3.47224 8.6111 3.42016 8.88888 3.38544 9.16666C3.35071 9.44443 3.33335 9.72221 3.33335 9.99999C3.33335 10.2778 3.35071 10.5555 3.38544 10.8333C3.42016 11.1111 3.47224 11.3889 3.54169 11.6667ZM7.83335 16.2917C7.58335 15.8194 7.3646 15.3368 7.1771 14.8437C6.9896 14.3507 6.83335 13.8472 6.70835 13.3333H4.25002C4.6528 14.0417 5.15974 14.6493 5.77085 15.1562C6.38197 15.6632 7.06947 16.0417 7.83335 16.2917ZM4.25002 6.66666H6.70835C6.83335 6.15277 6.9896 5.6493 7.1771 5.15624C7.3646 4.66318 7.58335 4.18055 7.83335 3.70832C7.06947 3.95832 6.38197 4.3368 5.77085 4.84374C5.15974 5.35068 4.6528 5.95832 4.25002 6.66666ZM8.41669 6.66666H11.5834C11.4167 6.06943 11.2014 5.49652 10.9375 4.94791C10.6736 4.3993 10.3611 3.87499 10 3.37499C9.63891 3.87499 9.32641 4.3993 9.06252 4.94791C8.79863 5.49652 8.58335 6.06943 8.41669 6.66666ZM13.2917 6.66666H15.75C15.3472 5.95832 14.8403 5.35068 14.2292 4.84374C13.6181 4.3368 12.9306 3.95832 12.1667 3.70832C12.4167 4.18055 12.6354 4.66318 12.8229 5.15624C13.0104 5.6493 13.1667 6.15277 13.2917 6.66666Z" fill="#B9BBC1"/>
</g>
</svg>
