<svg width="731" height="657" viewBox="0 0 731 657" fill="none" xmlns="http://www.w3.org/2000/svg">
<path d="M733.551 656.916L41.1838 623.417C36.9485 623.187 32.8112 622.057 29.0479 620.103C25.2846 618.149 21.9819 615.416 19.3603 612.086C16.7387 608.757 14.8584 604.907 13.8449 600.794C12.8315 596.681 12.7082 592.4 13.4833 588.235L105.197 75.0091C106.759 66.458 111.055 58.6429 117.44 52.7361C123.826 46.8292 131.957 43.149 140.615 42.2473L835.951 7.41934C840.543 6.97527 845.177 7.59139 849.493 9.22011C853.81 10.8488 857.693 13.4466 860.844 16.8126C863.995 20.1787 866.329 24.223 867.666 28.6332C869.003 33.0434 869.307 37.7014 868.554 42.2474L775.326 623.417C773.822 633.208 768.697 642.08 760.964 648.283C753.23 654.486 743.449 657.561 733.551 656.916Z" fill="#435DEF"/>
<path d="M716.565 649.565L28.1179 616.257C23.8954 616.027 19.7705 614.894 16.0185 612.94C12.2665 610.986 8.97378 608.253 6.36003 604.923C3.74629 601.593 1.87167 597.743 0.86127 593.63C-0.149131 589.517 -0.272073 585.235 0.500665 581.071L91.9387 67.8181C93.4957 59.2665 97.7786 51.4507 104.145 45.5435C110.512 39.6363 118.619 35.9558 127.25 35.054L819.583 0.1338C824.166 -0.30059 828.787 0.326043 833.09 1.96529C837.392 3.60454 841.261 6.21252 844.397 9.5878C847.533 12.9631 849.853 17.0153 851.177 21.4314C852.501 25.8476 852.793 30.5094 852.032 35.0569L758.214 616.257C756.622 625.989 751.48 634.785 743.786 640.937C736.092 647.09 726.392 650.165 716.565 649.565Z" fill="#A1AEF7"/>
</svg>
