<svg width="54" height="54" viewBox="0 0 54 54" fill="none" xmlns="http://www.w3.org/2000/svg">
<path d="M47.1007 33.2693C45.668 31.6826 43.7971 30.5562 41.7245 30.0323C39.6519 29.5084 37.4706 29.6105 35.4559 30.3257C33.4413 31.0409 31.6839 32.3372 30.4056 34.0507C29.1273 35.7642 28.3856 37.8182 28.274 39.9531C28.1625 42.0879 28.6862 44.208 29.7789 46.0454C30.8717 47.8828 32.4844 49.3552 34.4135 50.2764C36.3426 51.1977 38.5015 51.5266 40.6174 51.2215C42.7333 50.9164 44.7114 49.9911 46.3017 48.5624C47.3708 47.6187 48.2409 46.4711 48.8611 45.1869C49.4812 43.9028 49.839 42.5078 49.9134 41.0837C49.9878 39.6595 49.7774 38.2349 49.2944 36.8931C48.8115 35.5513 48.0657 34.3193 47.1007 33.2693Z" fill="#171717"/>
<path d="M32.5685 8.07172L30.7103 5.93477C29.2019 4.26665 27.3775 2.91436 25.3429 1.95621C23.3082 0.998051 21.1037 0.453075 18.8569 0.352835C16.6102 0.252596 14.3658 0.599084 12.2539 1.37224C10.142 2.14539 8.20445 3.32984 6.55348 4.857C4.88445 6.36532 3.53169 8.19018 2.57375 10.2256C1.6158 12.2611 1.07175 14.4665 0.973211 16.714C0.874669 18.9614 1.22363 21.206 1.99974 23.3175C2.77586 25.429 3.96367 27.3652 5.49428 29.0138L7.3525 31.1694C9.53547 33.6181 11.097 36.5563 11.9052 39.7358C12.444 42.1514 13.2431 45.106 14.0421 47.7818C14.3781 49.1226 15.0547 50.3538 16.0062 51.3564C16.9577 52.3589 18.152 53.0988 19.4733 53.5043C20.7947 53.9099 22.1984 53.9674 23.5485 53.6713C24.8986 53.3752 26.1494 52.7355 27.1797 51.8142L39.2395 40.8135L51.3179 29.8315C52.344 28.9074 53.1118 27.7322 53.5458 26.4214C53.9798 25.1106 54.065 23.7094 53.7931 22.3556C53.5213 21.0019 52.9016 19.7422 51.9952 18.7006C51.0888 17.659 49.9268 16.8714 48.6236 16.4151C45.9477 15.3559 43.2719 14.5569 40.8562 13.7393C37.799 12.3219 34.9983 10.4067 32.5685 8.07172Z" fill="#FBFCFF"/>
</svg>
