<svg width="453" height="228" viewBox="0 0 453 228" fill="none" xmlns="http://www.w3.org/2000/svg">
<path d="M404.522 227.72L35.09 211.646C32.9171 211.528 30.7934 210.955 28.8568 209.962C26.9201 208.97 25.2138 207.582 23.8487 205.887C22.4836 204.192 21.4902 202.23 20.933 200.126C20.3758 198.023 20.2672 195.826 20.6144 193.677L48.4877 35.7289C49.2888 31.2519 51.6288 27.1955 55.1031 24.2606C58.5775 21.3258 62.968 19.6968 67.5159 19.6553L432.656 16.7008C435.476 16.6934 438.264 17.2981 440.828 18.4731C443.392 19.6481 445.67 21.3655 447.506 23.5067C449.341 25.6479 450.69 28.1619 451.46 30.8751C452.229 33.5884 452.401 36.4363 451.963 39.2223L424.61 211.609C423.8 216.281 421.312 220.497 417.613 223.463C413.914 226.43 409.259 227.944 404.522 227.72Z" fill="#435DEF"/>
<path d="M384.417 211.442L15.2632 195.09C13.0883 194.978 10.9616 194.408 9.02207 193.417C7.08253 192.427 5.37381 191.038 4.00758 189.342C2.64136 187.646 1.64838 185.681 1.09354 183.575C0.538704 181.469 0.4345 179.27 0.787729 177.121L28.661 19.1724C29.4616 14.6936 31.8008 10.6349 35.2748 7.69692C38.7488 4.75895 43.1396 3.12607 47.6891 3.08018L412.829 0.125624C415.65 0.115091 418.44 0.717656 421.005 1.89166C423.571 3.06567 425.85 4.78307 427.687 6.92501C429.523 9.06694 430.872 11.5823 431.64 14.2969C432.408 17.0116 432.577 19.8607 432.136 22.6472L404.801 195.09C403.982 199.832 401.458 204.112 397.704 207.124C393.949 210.135 389.224 211.671 384.417 211.442Z" fill="#171717"/>
<path d="M112.319 74.4543C110.461 85.7151 100.798 94.8948 90.6152 94.5603C80.4322 94.2258 74.2629 85.2692 76.1397 73.9155C78.0165 62.5618 87.6607 53.8096 97.5836 53.8096C107.506 53.8096 114.456 63.1935 112.319 74.4543Z" fill="#A1AEF7"/>
<path d="M104.533 146.832L60.5672 145.494C59.2252 145.427 57.9119 145.081 56.7105 144.479C55.509 143.878 54.4457 143.033 53.5879 141.999C52.7301 140.964 52.0965 139.763 51.7274 138.471C51.3582 137.179 51.2615 135.825 51.4434 134.493L52.5212 128.919C56.0146 108.478 73.166 92.4419 91.1349 92.7207C109.085 92.9808 121.145 109.872 117.392 130.517L116.332 137.225C115.844 139.975 114.383 142.457 112.217 144.221C110.052 145.984 107.324 146.911 104.533 146.832Z" fill="#A1AEF7"/>
<path d="M345.824 91.0667L170.743 88.651C169.918 88.6322 169.107 88.437 168.364 88.0786C167.621 87.7202 166.963 87.2068 166.435 86.5731C165.907 85.9394 165.521 85.1999 165.302 84.4045C165.084 83.609 165.038 82.776 165.168 81.9614L167.305 69.6229C167.638 67.5916 168.686 65.7463 170.26 64.4206C171.835 63.0949 173.832 62.3762 175.89 62.3944L351.213 63.7323C352.038 63.7511 352.849 63.9463 353.592 64.3047C354.335 64.6631 354.992 65.1765 355.52 65.8102C356.049 66.4439 356.435 67.1833 356.653 67.9788C356.872 68.7742 356.918 69.6073 356.787 70.4219L354.651 83.8382C354.192 85.853 353.076 87.6576 351.477 88.9668C349.879 90.2759 347.89 91.0148 345.824 91.0667Z" fill="#A1AEF7"/>
<path d="M169.143 121.096L171.819 129.68L180.125 131.557L172.896 138.526L172.636 148.17L165.389 143.617L156.804 147.631L159.48 137.987L154.927 131.018L163.512 129.402L169.143 121.096Z" fill="#A1AEF7"/>
<path d="M209.616 121.895L212.31 130.48L220.876 132.616L213.369 139.603L213.109 149.247L205.602 144.955L197.017 148.987L199.711 139.325L194.88 131.817L204.004 130.48L209.616 121.895Z" fill="#A1AEF7"/>
<path d="M250.902 122.972L253.578 131.557L262.441 133.694L254.934 140.663L254.395 150.585L246.888 146.033L238.043 150.047L240.979 140.402L235.887 132.895L245.011 131.557L250.902 122.972Z" fill="#A1AEF7"/>
<path d="M292.993 123.771L295.947 132.616L304.792 134.772L297.025 142.019L296.746 151.923L288.979 147.371L279.855 151.385L282.81 141.48L277.718 133.973L287.102 132.356L292.993 123.771Z" fill="#FBFCFF"/>
<path d="M335.898 124.849L339.113 133.694L347.958 135.85L340.19 143.078L339.912 153.261L332.144 148.449L322.76 152.741L325.696 142.539L320.345 135.311L329.989 133.694L335.898 124.849Z" fill="#FBFCFF"/>
</svg>
