<svg width="129" height="89" viewBox="0 0 129 89" fill="none" xmlns="http://www.w3.org/2000/svg">
<path d="M109.669 79.8217L7.46659 87.5891C6.62195 87.6803 5.76772 87.5719 4.97262 87.2727C4.17751 86.9734 3.46375 86.4916 2.88887 85.8661C2.31399 85.2406 1.89403 84.4889 1.66278 83.6714C1.43153 82.8539 1.39545 81.9936 1.55747 81.1596L11.7405 19.2252C12.0205 17.3993 12.9052 15.7201 14.2528 14.4567C15.6005 13.1932 17.3332 12.4186 19.1734 12.2569L120.242 1.53499C121.236 1.42758 122.242 1.54761 123.183 1.88602C124.124 2.22442 124.976 2.77235 125.674 3.48836C126.372 4.20437 126.898 5.06974 127.212 6.01903C127.527 6.96831 127.621 7.97667 127.489 8.96786L117.566 72.7791C117.104 74.6076 116.104 76.2557 114.697 77.511C113.289 78.7662 111.538 79.5711 109.669 79.8217Z" fill="#FBFCFF" stroke="#171717" stroke-width="2.6" stroke-linecap="round" stroke-linejoin="round"/>
<path d="M14.5074 13.8735L58.9374 42.5458C60.1266 43.3368 61.523 43.7588 62.9512 43.7588C64.3794 43.7588 65.7758 43.3368 66.965 42.5458L124.886 2.8728" fill="#FBFCFF"/>
<path d="M14.5074 13.8735L58.9374 42.5458C60.1266 43.3368 61.523 43.7588 62.9512 43.7588C64.3794 43.7588 65.7758 43.3368 66.965 42.5458L124.886 2.8728" stroke="#171717" stroke-width="2.6" stroke-linecap="round" stroke-linejoin="round"/>
</svg>
