<svg width="451" height="230" viewBox="0 0 451 230" fill="none" xmlns="http://www.w3.org/2000/svg">
<path d="M405.276 223.276L35.8441 229.706C33.5908 229.744 31.357 229.282 29.3033 228.354C27.2496 227.426 25.427 226.055 23.9666 224.339C22.5061 222.622 21.444 220.604 20.8566 218.428C20.2693 216.252 20.1712 213.973 20.5696 211.755L47.6438 57.5232C48.4159 53.2705 50.5667 49.3902 53.764 46.4817C56.9614 43.5732 61.0274 41.7983 65.334 41.4311L429.935 17.0327C432.854 16.8365 435.779 17.303 438.492 18.3972C441.205 19.4913 443.635 21.1848 445.601 23.3509C447.567 25.517 449.018 28.0997 449.844 30.9057C450.671 33.7116 450.853 36.6682 450.375 39.5543L423.524 207.184C423.03 211.656 420.886 215.783 417.512 218.759C414.138 221.734 409.775 223.345 405.276 223.276Z" fill="#435DEF"/>
<path d="M385.43 206.924L16.0158 213.428C13.7619 213.466 11.5277 213.004 9.47336 212.076C7.41901 211.148 5.59551 209.777 4.13364 208.061C2.67178 206.345 1.60782 204.327 1.01809 202.152C0.428355 199.976 0.327464 197.697 0.722668 195.477L27.7969 41.2454C28.5699 36.9897 30.7234 33.1073 33.9244 30.1985C37.1255 27.2897 41.1958 25.5165 45.5057 25.1532L410.107 0.754831C413.025 0.558717 415.951 1.02518 418.663 2.11932C421.376 3.21346 423.807 4.90694 425.773 7.07306C427.739 9.23918 429.189 11.8218 430.016 14.6278C430.843 17.4338 431.024 20.3904 430.547 23.2764L403.733 190.832C403.198 195.297 401.035 199.408 397.657 202.377C394.28 205.346 389.926 206.965 385.43 206.924Z" fill="#171717"/>
<path d="M111.713 90.3024C109.854 101.303 100.192 110.743 90.2688 111.207C80.3459 111.672 73.9164 103.18 75.7932 92.1792C77.67 81.1786 87.3142 71.7388 97.2371 71.2743C107.16 70.8097 113.589 79.3203 111.713 90.3024Z" fill="#A1AEF7"/>
<path d="M104.745 160.822L60.7798 162.16C59.3782 162.216 57.9818 161.959 56.6927 161.406C55.4036 160.852 54.2546 160.018 53.3299 158.963C52.4052 157.908 51.7282 156.66 51.3485 155.31C50.9688 153.959 50.8961 152.541 51.1357 151.159L51.9347 146.328C55.4096 126.5 72.5795 109.609 90.5299 109.163C108.499 108.364 120.559 124.178 117.084 144.284L116.006 151.252C115.462 153.873 114.059 156.238 112.02 157.971C109.98 159.705 107.42 160.708 104.745 160.822Z" fill="#A1AEF7"/>
<path d="M345.753 92.1792L170.691 100.225C169.827 100.293 168.959 100.158 168.156 99.8322C167.353 99.506 166.638 98.9971 166.066 98.346C165.494 97.6949 165.082 96.9194 164.862 96.0811C164.643 95.2429 164.621 94.365 164.8 93.5171L166.658 81.7174C167.005 79.7893 167.984 78.0318 169.441 76.7227C170.898 75.4135 172.751 74.6275 174.705 74.4889L350.027 65.3651C350.891 65.2973 351.759 65.4319 352.562 65.7581C353.365 66.0843 354.08 66.5932 354.652 67.2444C355.224 67.8955 355.636 68.671 355.856 69.5092C356.075 70.3474 356.097 71.2253 355.918 72.0732L353.781 84.9507C353.521 86.9133 352.57 88.719 351.099 90.0438C349.628 91.3685 347.732 92.1256 345.753 92.1792Z" fill="#A1AEF7"/>
<path d="M168.815 131.852L171.49 140.177L179.815 141.515L172.568 148.743L172.029 158.127L165.061 154.374L156.476 158.666L159.17 149.282L154.339 142.593L163.184 140.437L168.815 131.852Z" fill="#A1AEF7"/>
<path d="M209.027 130.514L211.982 138.82L220.288 140.177L213.06 147.405L212.781 156.789L205.274 153.036L196.707 157.328L199.383 147.944L194.552 140.976L203.397 139.099L209.027 130.514Z" fill="#A1AEF7"/>
<path d="M250.315 128.916L253.27 137.222L261.836 138.82L254.329 146.067L254.069 155.712L246.562 151.698L237.717 156.25L240.392 146.606L235.301 139.638L244.685 137.482L250.315 128.916Z" fill="#A1AEF7"/>
<path d="M292.405 127.299L295.359 135.884L304.204 137.222L296.697 144.729L296.437 154.374L288.651 150.36L279.546 154.912L282.482 144.99L277.13 138.3L286.514 136.144L292.405 127.299Z" fill="#A1AEF7"/>
<path d="M335.571 125.683L338.525 134.268L347.631 135.884L339.863 143.113L339.584 153.036L331.538 149.022L322.433 153.575L325.388 143.652L320.017 136.683L329.401 134.546L335.571 125.683Z" fill="#A1AEF7"/>
</svg>
