<svg width="123" height="96" viewBox="0 0 123 96" fill="none" xmlns="http://www.w3.org/2000/svg">
<g id="Group">
<path id="Vector" d="M102.831 82.6258L18.9143 87.197L6.57569 95.2245C5.93843 95.6484 5.18919 95.8726 4.42381 95.8684C3.65843 95.8641 2.91171 95.6316 2.2792 95.2006C1.64668 94.7697 1.15713 94.1598 0.873159 93.449C0.589193 92.7383 0.52373 91.9589 0.685143 91.2107L13.8227 18.2943C14.3212 15.4512 15.7511 12.8547 17.8873 10.9136C20.0236 8.97245 22.7448 7.79701 25.6224 7.57234L112.959 0.864176C114.292 0.741243 115.637 0.927411 116.887 1.40822C118.137 1.88903 119.26 2.65155 120.167 3.63655C121.075 4.62154 121.743 5.80251 122.121 7.08774C122.498 8.37297 122.574 9.72787 122.343 11.0472L111.082 74.8584C110.793 76.8976 109.819 78.7777 108.319 80.1894C106.82 81.6012 104.884 82.4604 102.831 82.6258Z" fill="#FBFCFF"/>
<path id="Vector_2" d="M30.1757 29.0162L100.955 23.9247" stroke="#171717" stroke-width="2.6" stroke-linecap="round" stroke-linejoin="round"/>
<path id="Vector_3" d="M26.9602 46.9666L97.7397 42.1538" stroke="#171717" stroke-width="2.6" stroke-linecap="round" stroke-linejoin="round"/>
<path id="Vector_4" d="M23.7446 64.6756L60.7418 62.52" stroke="#171717" stroke-width="2.6" stroke-linecap="round" stroke-linejoin="round"/>
</g>
</svg>
